<?xml version="1.0" encoding="utf-8"?>
<!-- Generator: Adobe Illustrator 22.0.0, SVG Export Plug-In . SVG Version: 6.00 Build 0)  -->
<svg version="1.1" id="Layer_1" xmlns="http://www.w3.org/2000/svg" xmlns:xlink="http://www.w3.org/1999/xlink" x="0px" y="0px"
	 viewBox="0 0 1366 768" style="enable-background:new 0 0 1366 768;" xml:space="preserve">
<g>
	<g>
		<path d="M631.9,259c-26.4,1.9-53.7,4-78.3,14.8c-23.7,10.4-42.4,29.5-54.2,52.4c-22.5,43.5-19.1,98.6,13.8,135.9
			c14.9,16.9,34.9,29.5,56.9,34.6c25.3,5.9,52.4,1.5,76.1-8.7c47.1-20.3,83.8-67.3,83.6-119.8c-0.1-27.9-11-55.6-31.6-74.8
			c-20.8-19.4-48.3-29.4-75-37.8c-1.8-0.6-2.6,2.3-0.8,2.9c22.9,7.2,46.1,15.4,65.4,30c20.1,15.2,33.2,37.5,37.4,62.3
			c8.5,50.5-20.9,100.3-63.6,125.8c-22,13.2-48.1,20.9-73.9,19.5c-22.5-1.2-44-10.4-61.1-25c-37.2-31.7-47.7-83.8-31.1-129
			c9.6-26.4,28.2-50,53.4-62.9c25.4-13,54.8-15.2,82.8-17.2C633.8,261.9,633.8,258.9,631.9,259L631.9,259z"/>
	</g>
</g>
<g>
	<g>
		<path d="M663.2,287.4c10.4-28.9,28.5-54,49.2-76.4c21.1-23,44.4-45.4,70-63.3c6.7-4.7,13.7-9.8,21.3-12.9
			c10.2-4.3,16.6,2.2,18.8,11.7c3.7,15.6,0.1,32.5-5.6,47.1c-11,28-30.5,53.9-50.8,75.8c-22,23.8-48.7,43.6-80.2,52.6
			c-1.9,0.5-1.1,3.4,0.8,2.9c29.6-8.4,55.2-26.3,76.6-48.2c10.8-11.1,20.7-23.2,29.7-35.7c9.8-13.6,19-27.8,25.5-43.3
			c6.3-15,10-31.4,7.7-47.6c-1.8-12.6-9.6-24-23.6-18c-15.5,6.6-29.7,18.5-42.5,29.3c-13.3,11.2-26,23.2-38.2,35.5
			c-25.7,26-49,55.1-61.5,89.9C659.7,288.4,662.6,289.2,663.2,287.4L663.2,287.4z"/>
	</g>
</g>
<g>
	<g>
		<path d="M603.8,267.9c-18.4-67.1-3.2-141.9,47.2-191.5c6.3-6.2,13-11.9,20.3-16.8c7.5-5,16.7-10.5,26.1-10.4
			c8.9,0.2,15.6,7.1,18.5,15c3.1,8.5,1.7,17.6-1,26c-5.7,17.6-14.7,34.7-22.8,51.3c-7.8,16.1-16,32-24.8,47.6
			c-18.4,32.9-42.4,66.3-80,78.2c-1.8,0.6-1.1,3.5,0.8,2.9c34.4-10.9,58.1-39.4,76-69.4c10.3-17.3,19.6-35.3,28.5-53.4
			c8.7-17.7,18.2-35.8,24.6-54.6c4.8-14,5.6-31.6-7.1-41.8c-13.7-11-32.2,0.1-44,8.6c-27.6,20-48.3,49.6-60.4,81.3
			c-15.5,40.7-16.3,86-4.8,127.8C601.4,270.5,604.3,269.8,603.8,267.9L603.8,267.9z"/>
	</g>
</g>
<g>
	<g>
		<path d="M594.7,318.7c1.9,0,1.9-3,0-3C592.8,315.7,592.8,318.7,594.7,318.7L594.7,318.7z"/>
	</g>
</g>
<g>
	<g>
		<path d="M642.8,335.3c1.9,0,1.9-3,0-3C640.8,332.3,640.8,335.3,642.8,335.3L642.8,335.3z"/>
	</g>
</g>
<g>
	<g>
		<path d="M553.9,344.8c1.4,19,5,43.4,26.4,49.7c20.3,6,44.8-2.6,61.1-14.7c1.5-1.1,0-3.7-1.5-2.6c-15.3,11.3-36.5,18.8-55.6,15.1
			c-22.3-4.3-26-28.7-27.4-47.5C556.7,342.8,553.7,342.8,553.9,344.8L553.9,344.8z"/>
	</g>
</g>
<g>
	<g>
		<path d="M555.4,349.4c11.1-6.2,15.6,13.6,21.4,19c6.6,6.3,15.4,3.2,23.1,1.1c10.1-2.8,21.2-5.8,31.4-1.8c1.3,0.5,2.6,1.2,3.8,1.9
			c2.3,1.4,4,2.3,3,5.1c-0.9,2.6-2.7,4.2-4.8,5.9c-4.2,3.4-9.2,5.3-14.5,6.2c-1.9,0.3-1.1,3.2,0.8,2.9c5.6-0.9,10.9-3.1,15.4-6.6
			c2.7-2.1,7.7-6,7.1-10c-0.5-3.8-5.4-6.4-8.5-7.8c-5.4-2.4-11.4-2.9-17.3-2.4c-6.7,0.6-13.2,2.6-19.7,4.3
			c-3.9,1.1-8.4,2.6-12.5,1.7c-4.1-0.9-6.7-4.3-8.7-7.7c-4.3-7.4-10.3-20.8-21.3-14.6C552.2,347.8,553.7,350.4,555.4,349.4
			L555.4,349.4z"/>
	</g>
</g>
<g>
	<g>
		<path d="M570.8,355.5c-5.7,12.6-8.4,26.1-7.7,39.9c0.1,1.9,3.1,1.9,3,0c-0.7-13.3,1.8-26.3,7.3-38.4
			C574.2,355.2,571.6,353.7,570.8,355.5L570.8,355.5z"/>
	</g>
</g>
<g>
	<g>
		<path d="M588.8,370c-3.2,8.1-5.1,16.9-5,25.7c0.1,2.6,1.6,8.8,5.3,5c1.4-1.4-0.8-3.5-2.1-2.1c0.5-0.5-0.1-5.7-0.1-6.6
			c0.1-2.6,0.4-5.3,0.9-7.9c0.8-4.6,2.2-9,3.9-13.3C592.4,369,589.5,368.2,588.8,370L588.8,370z"/>
	</g>
</g>
<g>
	<g>
		<path d="M611.3,370c-1.8,10.7-2.9,21.6-3.4,32.4c-0.1,1.9,2.9,1.9,3,0c0.5-10.6,1.6-21.2,3.3-31.6
			C614.5,368.9,611.6,368.1,611.3,370L611.3,370z"/>
	</g>
</g>
<g>
	<g>
		<path d="M311.4,105.8c12.6,8.7,7.1,26.7,4.8,38.9c-1.1,6-2,12.2-0.9,18.2c1.1,6.4,4.7,10.4,9,15c10.2,10.9-6.2,21.2-3.5,33.1
			c1.7,7.2,9,11,9.4,18.9c0.5,7.8-3.2,15.4-5.1,22.8c-0.6,2.5-1.3,5.2-0.9,7.8c0.6,3.5,3.5,5.9,4.5,9.3c2.3,7.5-1.8,15.8-2,23.5
			c-0.4,16.1,8.5,30.8,7.7,47.1c-0.4,8.6-2.7,17.2-6.7,24.8c-3.5,6.6-8,12.6-11.9,19c-6.4,10.5-9.7,22-6.7,34.2
			c2.7,10.9,10.2,19.9,21,23.4c12.4,4,26.3,0.7,37.6-5c22.4-11.2,39.8-35.4,40.1-60.9c0.2-12.6-4.9-24.2-15.7-31
			c-12.7-8-29.1-10.3-43.4-14c-34.8-8.9-69.6-17.8-104.3-26.7c-8.3-2.1-16.6-4.1-24.8-6.7c-3.9-1.2-7.7-2.5-11.4-4
			c-2.3-0.9-4.8-1.9-7-3.2c-3.4-2-4.9-4.3-3.3-8.5c1.3-3.4,6.2-6.7,8.7-9.2c3-2.9,6.1-5.9,9.2-8.8c5.9-5.6,11.9-11.2,17.7-16.9
			c21.4-21,41.7-45.1,49.2-74.8c1.7-6.8,2.6-13.7,2.8-20.7c-0.8,0.4-1.5,0.9-2.3,1.3c10.3,7.5,21.5,13.7,33.3,18.5
			c11.7,4.7,24.6,8.9,37.3,8.4c9.9-0.4,19.5-4.1,24.9-12.7c4.6-7.3,5.7-16.8,0.2-23.9c-0.6-0.8-2.1-1.1-2.6,0
			c-6.9,15.2-9.2,31.8-12.1,48.1c-3.1,17.8-6.3,35.5-9.4,53.3c-4.4,24.6-13.9,64.3,16.1,77.2c1.8,0.8,3.3-1.8,1.5-2.6
			c-30.9-13.3-17.7-56.9-13.3-81.6c2.8-15.8,5.6-31.6,8.4-47.5c2.7-15.4,4.9-31.1,11.5-45.5c-0.9,0-1.7,0-2.6,0
			c5.7,7.5,3.3,17.5-2.7,24.1c-7.7,8.5-20.6,8.9-31.1,7.2c-20.8-3.4-40.9-13.3-57.9-25.6c-1-0.7-2.2,0.3-2.3,1.3
			c-0.7,31.4-18.4,58.8-39.1,81.1c-10.9,11.7-22.8,22.5-34.3,33.6c-6,5.7-23.4,18.4-10.6,26.2c13,8,29.6,10.8,44.1,14.5
			c17.1,4.4,34.1,8.8,51.2,13.1c17.1,4.4,34.1,8.8,51.2,13.1c14.7,3.8,31.8,6,44.9,14c28.1,17,11.8,57.4-6.7,75.1
			c-10.3,9.8-24.2,17.2-38.6,18.2c-15,1-28.1-6.9-32.3-21.6c-4.3-14.7,2.1-27.4,10-39.4c8-12.1,14.3-24.3,15-39.1
			c0.7-15.6-7-29.3-7.7-44.5c-0.4-7.7,2.9-15,2.5-22.6c-0.1-2.4-0.6-4.7-1.7-6.9c-0.8-1.5-2-2.8-2.7-4.3c-1.2-2.8-0.6-5.8,0.1-8.6
			c3.2-12.6,9-24.2,0.1-35.8c-2.4-3.1-4.8-6-4.7-10.1c0.1-3.5,1.9-6.8,3.4-9.9c2-4.2,4.5-8.8,4-13.6c-0.7-5.7-5.4-8.6-8.7-12.8
			c-4.8-6.1-4.9-14.1-3.8-21.4c1.7-11.8,6.4-23.8,2.6-35.8c-1.4-4.6-4.1-8.2-8-11C311.3,102.1,309.8,104.7,311.4,105.8L311.4,105.8z
			"/>
	</g>
</g>
<g>
	<g>
		<path d="M427.7,213.5c3.1,9.7-0.2,20-0.2,29.9c0,8.3,1.4,16.7,4,24.6c5.4,16.4,16.3,29.7,27.2,42.7c0.6,0.7,1.9,0.5,2.4-0.3
			c13.1-25.2,14.8-58.8,39.3-76.7c-0.8-0.4-1.5-0.9-2.3-1.3c0.2,3.8-2.7,6.2-6.2,6.8c-3.9,0.7-7.3-1.3-9.9-4
			c-5-5.2-7.9-12.9-11-19.2c-3.5-7.1-6.8-14.2-9.6-21.6c-2.4-6.5-7.9-18.2-1.6-24c2.8-2.6,7.1-3.7,10.5-5.1
			c3.4-1.4,6.9-2.7,10.4-3.8c7.8-2.4,16.2-3.7,24.3-1.9c14.6,3.2,25.1,18.5,26,33.1c0.9,15.2-16,27.4-28.3,33.1
			c-8.6,4-15.5,2-22.4-4c-5.4-4.7-9.9-10.4-13.5-16.5c-7-11.9-10.6-25.5-11.5-39.2c-0.5-7.5-0.3-15,0.4-22.5c0.4-4.2,1-8.5,1.7-12.7
			c0.6-3.8,0.8-9.5,2.6-12.9c2.3-4.4,7.9-2.4,12-1.8c3.7,0.5,7.4,1.2,11,1.9c7.9,1.6,15.8,3.6,23.5,6.1c6.9,2.2,14.4,4.5,20,9.4
			c5.7,4.9,7.9,12.1,7.6,19.5c-0.6,14.2-9.7,25.5-18.7,35.7c-4.1,4.7-8.5,9.4-12.1,14.5c-1.4,2.1-2.8,4.3-3.2,6.8
			c-0.5,3.2,1.1,5,2.6,7.6c4.4,8-2.4,15.8-8.7,20.3c-5.8,4.2-12.7,6.6-19.7,7.8c-7.9,1.3-16.1,1-24.1,0.4c-2.7-0.2-7.8,0.1-10.4-1.1
			c-3.7-1.7-3.1-10.6-3.4-14.2c-1.5-16-2.1-32.1-3.6-48.1c-1.3-14.1-2.7-29.1-7.8-42.3c-3.9-10.1-12.7-21.3-24.9-19.7
			c-12.7,1.7-14.6,16.4-11.4,26.5c2.5,7.9,6.6,15.3,9.4,23.1c2.9,8,5.2,16.2,6.9,24.6c3.6,17.2,4.5,34.7,3.1,52.2
			c-0.2,1.9,2.8,1.9,3,0c1.4-17.4,0.4-35-3.1-52.1c-1.8-8.6-4.1-17.1-7.1-25.4c-3-8.3-7.6-16.2-9.9-24.8
			c-2.3-8.5-0.1-21.4,11.2-21.1c9,0.2,15.4,7.6,18.8,15.2c3.5,7.6,4.9,16.1,6.3,24.3c1.6,10,2.6,20.1,3.3,30.2
			c0.7,9.3,1.2,18.6,1.9,27.9c0.3,4.5,0.7,9,1.2,13.4c0.3,3.1,0.1,7.5,1.5,10.5c1,2.1,2.8,2.6,5,3c4.2,0.7,8.6,0.9,12.8,1.2
			c8.3,0.6,16.8,0.6,25-1.3c11.5-2.6,27.8-10.7,29.1-24.2c0.2-2.6-0.3-4.9-1.6-7.1c-1.9-3.2-3.8-3.9-1.6-9.1c1-2.4,3.1-4.6,4.7-6.6
			c5.1-6.4,10.8-12.2,15.8-18.6c8.2-10.4,14.6-23.4,11.9-37c-2.9-14.7-16.5-20.1-29.3-24.3c-8.9-2.9-18-5.2-27.2-6.8
			c-3.8-0.7-7.6-1.3-11.5-1.8c-2.7-0.3-6.6-1.6-9.1,0c-1.8,1.1-2.3,3.3-2.7,5.3c-1.1,4.6-1.9,9.2-2.7,13.9
			c-1.4,8.8-2.3,17.7-2.2,26.6c0.1,15.2,3.1,30.5,10,44.1c5.6,11.1,16.2,26.3,29.5,28.3c6.6,1,13-2.4,18.5-5.7
			c6.6-3.9,12.6-8.9,17.5-14.7c9.9-11.8,7.1-26.6-0.8-38.8c-8.1-12.5-21.4-17.5-36-15.6c-8.6,1.1-16.7,4.4-24.7,7.7
			c-5.6,2.3-10.9,4.7-12,11.4c-1.1,6.9,2.3,14.5,4.7,20.8c3,7.9,6.6,15.6,10.4,23.1c4.6,9.1,11.6,27.3,25.1,22.5
			c4.1-1.4,7-4.8,6.7-9.2c-0.1-1-1.3-2-2.3-1.3c-25.3,18.4-27,51.9-40.4,77.7c0.8-0.1,1.6-0.2,2.4-0.3
			c-11.3-13.5-22.6-27.4-27.5-44.7c-2.3-8.3-3.2-17-2.7-25.7c0.6-8.6,2.6-17-0.1-25.4C430,210.9,427.1,211.7,427.7,213.5
			L427.7,213.5z"/>
	</g>
</g>
<g>
	<g>
		<path d="M887.9,61.6c10.5,1.9,20.1,6.9,27.2,14.9c8.1,9.1,8.4,18.7,3,29.3c-3.8,7.5-9,14.5-11,22.7c-2.4,9.7,0.2,19.6,4.3,28.5
			c9.1,20,27.9,38.7,19.1,62.2c-3.9,10.3-8.9,19.8-11.8,30.5c-2.8,10.2-4.6,20.7-6.1,31.1c-3.3,22.2-6.6,43.8-13,65.4
			c-6.2,21.1-13,42.7-11.1,65c0.8,9.2,2.8,19,7.9,26.9c5.1,7.8,13.3,11.2,21.8,14.2c18.5,6.6,39.2,11,58.7,5.9
			c5.2-1.3,19.4-4.9,16.3-12.9c-1.5-4-6.5-7.2-9.8-9.8c-3.8-3-7.8-5.8-11.8-8.4c-18.8-12.2-39.9-21.3-55.7-37.7
			c-0.2,0.8-0.4,1.7-0.7,2.5c14.2-5.8,28.4-11.6,42.3-18.2c12-5.7,25.6-11.6,34.6-21.7c8.9-10,9.6-23,9.7-35.7
			c0.2-16.5,0.3-33.1,0.3-49.6c-0.1-18.9-0.3-37.7-0.8-56.6c0-1.9-3-1.9-3,0c0.5,19.8,0.7,39.7,0.8,59.6c0,18.8,0.7,38-0.6,56.8
			c-0.6,9.2-3.1,17.8-9.6,24.6c-5.9,6.1-13.6,10.3-21,14.2c-17.3,9.1-35.4,16.5-53.5,23.9c-1,0.4-1.5,1.6-0.7,2.5
			c12.6,13.1,28.6,21.7,44.1,30.7c8.3,4.8,16.5,9.8,24,15.9c3.2,2.5,12.1,8.8,5.9,12.6c-4.4,2.8-10,4.3-15.1,5.3
			c-20.2,4.1-43.5-1.3-62-9.9c-21.4-9.9-21.3-39.7-18.2-59.8c3.3-21.4,11.5-41.7,16.2-62.8c4.4-19.9,5.8-40.4,9.9-60.3
			c2.1-10.5,5-20.9,9.3-30.7c3.8-8.6,8.3-16.9,8.2-26.6c-0.4-20.3-16.1-35.6-23.3-53.5c-4.9-12.3-4.1-23.4,2.2-34.9
			c4.1-7.4,9.4-14.8,10.2-23.5c1.7-18.9-20.3-32.6-36.4-35.5C886.8,58.4,886,61.3,887.9,61.6L887.9,61.6z"/>
	</g>
</g>
<g>
	<g>
		<path d="M772.7,125.6c15.7-8.2,32.9-13.2,50.6-14.4c8.1-0.6,18.1-1.5,25.2,3c6.6,4.1,11.2,12.3,14.6,19c8.1,16,8.5,33.5,3.3,50.5
			c-5,16.3-13.7,31.3-21.1,46.6c-7.3,15.2-14.2,30.7-19.7,46.8c-5.5,16.1-9,32.8-13.7,49.1c-4.6,16.1-11,31.1-20.1,45.2
			c-8.5,13.3-18.1,25.9-24.8,40.3c-2.8,6-6.3,13.1-2.5,19.5c3.7,6.1,11.6,10.1,17.4,13.7c15.5,9.6,32.3,17.1,49.7,22.4
			c1.9,0.6,2.6-2.3,0.8-2.9c-16.6-5.1-32.6-12.1-47.5-21.2c-6.3-3.8-17.8-9.1-19.1-17.1c-0.8-4.7,2.4-10.3,4.4-14.4
			c1.8-3.8,3.9-7.5,6-11.1c8.1-13.6,17.9-26.1,25.4-40c7.9-14.6,12.4-30.7,16.5-46.7c4.3-17,8.9-33.7,15.3-50
			c6.6-16.6,14.4-32.6,22.4-48.6c7.2-14.4,14.4-29.4,16.4-45.6c1.9-15.1-1.8-30.2-9.7-43.2c-3.8-6.3-8.6-13.4-15.6-16.4
			c-7.3-3.2-16.3-2.5-24-1.9c-18.2,1.3-35.9,6.4-52.1,14.8C769.5,123.9,771,126.5,772.7,125.6L772.7,125.6z"/>
	</g>
</g>
<g>
	<g>
		<path d="M545.6,461.8c-42.5,14-84.8,28.7-126.9,44.1c-39.1,14.3-79.2,29.2-115,50.7c-7.8,4.7-15.3,9.9-22.1,16
			c-4.9,4.4-13,10.8-10.7,18.4c2.1,6.9,10,10.3,16,13c8.6,3.9,17.4,7,26.5,9.3c38.4,10,78.9,6.9,116.9-3.2
			c22.5-6,44.2-14.3,65.4-23.7c22.1-9.8,43.7-23,67.4-28.5c0.7-0.2,1.3-1.1,1-1.8c-9-24.7-22.9-47.2-41-66.2
			c-1.3-1.4-3.5,0.7-2.1,2.1c17.8,18.6,31.4,40.7,40.2,64.9c0.3-0.6,0.7-1.2,1-1.8c-18.8,4.3-35.7,13.8-53,21.9
			c-18.3,8.6-36.9,16.6-56,23.1c-36.5,12.5-75.3,19.5-113.9,15.1c-19.1-2.2-38.5-7.1-55.7-15.9c-3.6-1.8-7.6-4.2-9.4-8
			c-2.7-5.8,3.8-11.2,7.6-14.8c6.8-6.5,14.5-11.9,22.6-16.8c34.1-20.7,72.4-35.1,109.7-48.9c43.8-16.2,87.9-31.4,132.2-46
			C548.2,464.1,547.4,461.2,545.6,461.8L545.6,461.8z"/>
	</g>
</g>
<g>
	<g>
		<path d="M339.9,513.5c40.5,30.1,69.5,74.1,81.3,123.2c0.5,1.9,3.3,1.1,2.9-0.8c-12-49.8-41.6-94.4-82.7-125
			C339.9,509.8,338.4,512.4,339.9,513.5L339.9,513.5z"/>
	</g>
</g>
<g>
	<g>
		<path d="M401.8,518.2c44.9,25.5,79.2,67.6,95.1,116.7c0.6,1.8,3.5,1,2.9-0.8c-16.2-49.8-51-92.6-96.5-118.5
			C401.6,514.7,400.1,517.3,401.8,518.2L401.8,518.2z"/>
	</g>
</g>
<g>
	<g>
		<path d="M459.1,504.9c48.4,24,89.3,61.8,117.1,108.2c1,1.7,3.6,0.1,2.6-1.5c-28-46.8-69.3-85-118.1-109.3
			C458.9,501.4,457.3,504,459.1,504.9L459.1,504.9z"/>
	</g>
</g>
<g>
	<g>
		<path d="M482.7,481.7c24.4,19.9,45.9,43.1,64,68.9c1.1,1.6,3.7,0.1,2.6-1.5c-18.2-26-39.8-49.4-64.4-69.5
			C483.4,478.4,481.2,480.5,482.7,481.7L482.7,481.7z"/>
	</g>
</g>
<g>
	<g>
		<path d="M339.5,566c34.6,29.2,71.1,60.4,87.5,103.9c0.7,1.8,3.6,1,2.9-0.8c-16.6-44.1-53.1-75.7-88.2-105.3
			C340.2,562.6,338,564.7,339.5,566L339.5,566z"/>
	</g>
</g>
<g>
	<g>
		<path d="M529.3,494.1c20.6-25,45.1-46.3,72.7-63.2c-0.8-0.4-1.5-0.9-2.3-1.3c-1.3,12.1-11.9,20.8-20.5,28.3
			c-9.2,7.9-19.1,15-28.9,22.1c-1.5,1.1-0.1,3.6,1.5,2.6c13.1-8.3,26.9-15.4,41.3-21.1c14-5.5,29.9-11.7,45.2-11.3
			c-0.4-0.8-0.9-1.5-1.3-2.3c-5.2,11.7-17.9,18.7-28.7,24.5c-12,6.6-24.7,11.8-37.3,17c-1.7,0.7-1.1,3.5,0.8,2.9
			c25.5-7.6,52.2-10.3,78.7-7.8c-0.3-0.9-0.5-1.9-0.8-2.8c-21.8,14.1-49.2,13-72.1,24.6c-1,0.5-1,2.1,0,2.6
			c9.4,4.5,18.7,9,28.1,13.7c4.7,2.3,9.3,4.7,13.9,7c3.7,1.9,11.7,4.4,12.3,9.2c0.4-0.5,0.7-1,1.1-1.4c-5.7,1.6-11.2-0.4-16.7-2
			c-4.4-1.2-8.8-2.5-13.1-3.8c-9.7-2.8-19.3-5.7-29-8.7c-18.9-5.9-37.8-12.1-56.5-18.6c-1.8-0.6-2.6,2.3-0.8,2.9
			c20,6.9,40,13.6,60.2,19.8c9.9,3.1,19.9,6,29.9,8.9c8.3,2.4,18,6.9,26.8,4.4c0.6-0.2,1.2-0.8,1.1-1.4c-0.5-3.6-2.6-5.7-5.6-7.6
			c-5.1-3.1-10.7-5.5-16-8.2c-11.3-5.7-22.7-11.3-34.2-16.7c0,0.9,0,1.7,0,2.6c22.9-11.6,50.3-10.5,72.1-24.6
			c1.3-0.8,0.7-2.7-0.8-2.8c-26.8-2.4-53.7,0.3-79.5,8c0.3,1,0.5,1.9,0.8,2.9c13.4-5.6,26.9-11.1,39.6-18.2c10.7-6,23-13,28.2-24.8
			c0.5-1-0.1-2.2-1.3-2.3c-15.6-0.4-31.7,5.7-46,11.4c-14.7,5.8-28.7,13-42.1,21.4c0.5,0.9,1,1.7,1.5,2.6c11.1-8,22.1-15.9,32.3-25
			c8.5-7.6,17.4-16.1,18.6-28c0.1-1.2-1.4-1.8-2.3-1.3c-27.8,17-52.5,38.5-73.3,63.7C526,493.4,528.1,495.5,529.3,494.1L529.3,494.1
			z"/>
	</g>
</g>
<g>
	<path d="M766.7,478.9c-4.3,4.4-7.8,9.4-10.1,15.1c-1.4,3.6-4.6,11.1-2.3,14.9c2.1,3.5,7.9,1.4,10.8,0.4c5.8-1.9,10.7-5.5,14.7-10.1
		c0.9-1,0.3-2.5-1.1-2.6c-8.7-0.4-16.7,2.8-22.7,9c-1.2,1.2,0.3,3.2,1.8,2.4c6.1-3.3,10.6-8.1,13.5-14.4c0.5-1.1-0.1-2.2-1.3-2.3
		c-3.5-0.2-5.4,2.3-7.5,4.9c-2.9,3.7-5.3,7.5-7.6,11.6c-0.7,1.2,0.7,2.9,2.1,2.1c2.9-2,13.2-12.3,7.6-15.9c-6-3.8-8.6,11.4-8.3,14.5
		c0.1,1.1,0.9,1.6,1.9,1.4c4.4-0.7,8-3.4,9.9-7.4c1.4-3,2.2-8.2-0.7-10.8c-8.5-7.5-10.3,16.9-10,20.3c0.8,10.9,12.8,2.2,15.5-3.4
		c5.5-11.3-4.8-18.3-14.9-19.6c-4.3-0.6-9.3-0.3-12.2,3.3c-2.4,2.9-2.9,7.2-0.1,10c3.4,3.3,10,3.1,14.2,2.7c4.9-0.5,11-1.7,14.8-5.2
		c2.4-2.2,4.2-6.7,1.2-9.2c-3.3-2.9-7,0.8-9,3.4c-1.9,2.4-8.1,9.6-5.7,13c1.9,2.8,6.8-0.3,8.6-1.8c8.1-6.9-3.9-15-11-14.7
		c-4.4,0.2-7.3,3.3-8.4,7.4c-0.6,2.4-1.6,7,2.1,7.2c4.7,0.3,22-8.3,17.5-14.9c-5.1-7.4-18,3.5-18.6,9.7c-0.9,10.1,18.8,3.3,22.1-0.7
		c2.6-3.1,2.5-7.2-0.9-9.6c-3.4-2.5-8.2-2.2-11.9-0.6c-5.2,2.3-15.4,16.7-5.2,18.4c7.7,1.3,23.6-5.7,16.8-15.2
		c-5.7-8.1-17.9-8.1-24-0.5c-2.4,3-4.3,7.9-1.7,11.4c2.9,3.9,9.8,4.3,14.1,3.2c8.8-2.3,12.7-13.5,4.6-19.2
		c-8.1-5.8-17.7-0.2-21.4,7.9c-2.3,5.1-2.6,10.8-1.1,16.1c0.2,0.8,1,1.2,1.8,1c7.2-1.2,15.9-5.5,19.2-12.5c3.3-6.9-7.9-8.2-12.2-8.3
		c-1.9-0.1-1.9,2.9,0,3c1.9,0.1,7.7,0.1,9.1,2c1.8,2.4-2.4,5.8-3.9,7.1c-3.7,3.2-8.1,5-12.9,5.8c0.6,0.3,1.2,0.7,1.8,1
		c-2.3-8.5,1.9-24.9,13.8-22.5c5.4,1.1,9.4,6.6,5.9,11.8c-4.4,6.5-21.1,5-15.8-4.5c2.5-4.5,8-7,13-5.8c2.7,0.6,6.2,2.5,7.4,5.1
		c2.3,4.9-2.9,7.7-6.3,9c-2.3,0.9-5.9,2-8.1,0.5c-1.9-1.3-1.6-1.3-0.9-3.6c0.4-1.3,0.9-2.5,1.6-3.6c1.2-2,3-3.8,5.1-4.8
		c3.2-1.6,12.9-1.9,10.2,4.6c-1.7,4.3-13.1,7.5-15.9,4.2c-1.7-2-1.1-2.4,0.4-4.5c0.8-1.1,1.6-1.9,2.7-2.6c0.9-0.6,2.1-1.5,3.1-1.7
		c1.1-0.7,2.2-0.5,3.2,0.6c2.3,0.5,2.5,1.4,0.4,2.9c-2.8,3.1-6.9,4.7-10.7,6.1c-2.8,1-2.7,0.7-1.8-2.5c1.2-4.2,5.2-5.9,9.2-4.6
		c3.5,1.1,9.3,4.2,4.7,9.2c-0.5,0.5-3.2,1.6-3.1,1.6c-0.3-0.2,1.2-3.1,1.1-2.8c0.8-1.6,1.8-3.2,2.9-4.7c1.6-2.2,1.5-2.9,4.2-2.6
		c4.3,0.6,0.3,3.1-1.7,4.2c-4.4,2.5-10,3.3-14.9,3.1c-1.8,0-5.8,0.1-7.3-1.5c-0.2-0.9-0.3-1.9-0.5-2.8c-1.2-2.2-0.6-3.9,1.7-5
		c1.6-1,3.8-1.1,5.7-1.1c5.3,0.2,13.2,1.9,15.4,7.4c1.4,3.5,0.3,7.3-1.8,10.4c-0.9,1.2-2.1,2.5-3.3,3.3c-0.7,0.3-1.4,0.7-2,1
		c-1.6,1-2.5,0.8-2.7-0.8c-2.2-3.1-0.4-15,2.1-17.6c0.2-0.4,0.5-0.8,0.7-1.2c2.2,0.7,3.1,2,2.7,3.7c0,1.5-0.7,3-1.4,4.3
		c-1.7,2.7-4.3,4.2-7.4,4.7c0.6,0.5,1.3,1,1.9,1.4c-0.2-2.1,0.1-4,0.7-6c-0.3,0.9,1.6-5.5,2.6-4.3c0.5,0.6-2,4.3-2.4,4.8
		c-1.3,1.8-2.9,3.1-4.7,4.3c0.7,0.7,1.4,1.4,2.1,2.1c1.4-2.6,3-5.2,4.7-7.7c1.6-2.4,4.3-7.6,7.8-7.4c-0.4-0.8-0.9-1.5-1.3-2.3
		c-2.6,5.9-6.7,10.3-12.4,13.3c0.6,0.8,1.2,1.6,1.8,2.4c5.5-5.7,12.7-8.5,20.6-8.2c-0.4-0.9-0.7-1.7-1.1-2.6
		c-2.7,3.1-5.8,5.7-9.4,7.6c-2.1,1.1-4.6,2.3-7,2.5c-3.7,0.4-4.9-0.4-4.3-4c1.4-8.5,5.7-16.1,11.7-22.2
		C770.1,479.6,768,477.5,766.7,478.9L766.7,478.9z"/>
</g>
<g>
	<g>
		<path d="M338.4,55.2c-4.4,1.9-7.9,5.1-9.9,9.5c-1.2,2.8-3,9,0,11.4c3.2,2.5,7.6-3.2,9.2-5.3c3.2-4.2,4.9-9.1,5.4-14.4
			c0.1-1.2-1.3-1.8-2.3-1.3c-5.1,2.7-8,7.7-7.9,13.5c0,1.2,1.2,1.8,2.3,1.3c3-1.4,7.4-6.2,3.1-9.1c-4-2.7-9.1,2-11,5.1
			c-0.7,1.1,0.4,2.6,1.7,2.2c5.7-1.8,10.8-4.5,15.5-8.3c1.5-1.2-0.6-3.3-2.1-2.1c-4.2,3.4-9,5.9-14.1,7.5c0.6,0.7,1.1,1.5,1.7,2.2
			c1-1.7,2.6-3.5,4.6-4.1c1.8-0.8,2.3,0,1.7,2.5c-0.8,0.6-1.6,1.1-2.5,1.5c0.8,0.4,1.5,0.9,2.3,1.3c-0.1-4.7,2.2-8.7,6.4-10.9
			c-0.8-0.4-1.5-0.9-2.3-1.3c-0.3,3.5-1.2,6.8-3,9.9c-1.1,2-3.3,5.7-5.5,6.5c-1.4,0.9-1.9,0.5-1.6-1.1c0-0.9,0.1-1.9,0.3-2.8
			c0.3-1.3,0.7-2.5,1.3-3.7c1.6-3.2,4.3-5.8,7.6-7.2C341,57.4,340.2,54.5,338.4,55.2L338.4,55.2z"/>
	</g>
</g>
<g>
	<g>
		<path d="M501.7,77.5c2.6-0.3,4.2-0.5,6.6-1.8c1.2-0.6,2.2-1.4,3.1-2.4c1.8-1.8,3.2-4.2,3.8-6.7c0.9-3.6,0.5-7.4-1.3-10.6
			c-1.5-2.8-4.1-4.7-7.1-5.7c-2.3-0.7-4.8-0.3-7.1,0.1c-0.9,0.2-1.7,0.6-2.6,0.9c-1.8,0.7-3.2,1.6-4.6,2.9c-2.6,2.5-4.2,6.1-4.2,9.7
			c0,3.7,1.4,7,3.8,9.8c0.8,0.9,1.9,1.8,3,2.4c0.9,0.5,2.2,1.1,3.1,1.3c1,0.3,2.4,0.5,3.5,0.4c3-0.1,6-1.2,8.1-3.4
			c2-2,3.5-5.3,3.4-8.1c-0.1-3-1.1-6.1-3.4-8.1c-2.2-2-5.1-3.5-8.1-3.4c-0.1,0-0.3,0-0.4,0c1,0.1,2,0.3,3.1,0.4
			c-0.1,0-0.1,0-0.2-0.1c0.9,0.4,1.8,0.8,2.7,1.2c-0.1,0-0.3-0.1-0.4-0.2c0.8,0.6,1.6,1.2,2.3,1.8c-0.2-0.1-0.3-0.3-0.5-0.5
			c0.6,0.8,1.2,1.6,1.8,2.3c-0.1-0.1-0.2-0.3-0.2-0.4c0.4,0.9,0.8,1.8,1.2,2.7c-0.1-0.2-0.2-0.4-0.2-0.7c0.1,1,0.3,2,0.4,3.1
			c0-0.2,0-0.4,0-0.7c-0.1,1-0.3,2-0.4,3.1c0-0.2,0.1-0.3,0.1-0.4c-0.4,0.9-0.8,1.8-1.2,2.7c0.1-0.2,0.2-0.4,0.4-0.7
			c-0.6,0.8-1.2,1.6-1.8,2.3c0.2-0.2,0.4-0.4,0.6-0.5c-0.8,0.6-1.6,1.2-2.3,1.8c0.2-0.2,0.4-0.3,0.7-0.4c-0.9,0.4-1.8,0.8-2.7,1.2
			c0.5-0.2,1-0.4,1.6-0.4c-1,0.1-2,0.3-3.1,0.4c0.2,0,0.4,0,0.5,0c-3.3-1.9-6.6-3.8-9.9-5.7c0.1,0.2,0.2,0.4,0.3,0.6
			c-0.4-0.9-0.8-1.8-1.2-2.7c0.1,0.1,0.1,0.3,0.1,0.4c-0.1-1-0.3-2-0.4-3.1c0,0.3,0,0.6,0,0.9c0.1-1,0.3-2,0.4-3.1
			c-0.1,0.3-0.1,0.6-0.3,0.9c0.4-0.9,0.8-1.8,1.2-2.7c-0.1,0.2-0.2,0.4-0.3,0.6c0.6-0.8,1.2-1.6,1.8-2.3c-0.2,0.2-0.4,0.4-0.6,0.6
			c0.8-0.6,1.6-1.2,2.3-1.8c-0.2,0.1-0.4,0.2-0.6,0.3c0.9-0.4,1.8-0.8,2.7-1.2c-0.1,0.1-0.3,0.1-0.4,0.1c1-0.1,2-0.3,3.1-0.4
			c-0.1,0-0.2,0-0.2,0c-1.6-0.1-3.1,0.3-4.4,1c-1.4,0.5-2.7,1.3-3.7,2.4c-2,2-3.5,5.3-3.4,8.1c0.1,3,1.1,6.1,3.4,8.1
			C495.7,76,498.8,77.9,501.7,77.5L501.7,77.5z"/>
	</g>
</g>
<g>
	<g>
		<path d="M494.7,73.7c7.6,1.9,15.2,3.9,22.8,6.1c3.4,1,6.7,2,10.1,3.1c1.3,0.4,2.5,0.9,2.8,1.4c0.8,1.5,0.3,4.4,0.3,6.1
			c-0.1,3.9-0.3,7.8-0.5,11.8c-0.5,7.5-1.2,14.9-2.2,22.3c-0.9,6.1,1.5,12.3,8,14.1c5.4,1.5,13.3-1.8,14.1-8
			c1.4-10.1,2.5-20.2,3.1-30.4c0.5-8.9,1.5-18.6-2.7-26.9c-4.3-8.5-12.8-11.4-21.3-14c-9.4-2.9-18.9-5.5-28.4-7.8
			C486.4,48,480.3,70.1,494.7,73.7L494.7,73.7z"/>
	</g>
</g>
<g>
	<g>
		<path d="M746.7,147.4c-8.5,9.6-15.8,20.1-21.3,31.6c-4.9,10.3,5.1,21.2,15.7,15.7c8-4.1,15.2-9.4,21.7-15.6
			c-6-4.6-12-9.3-18.1-13.9c-6.2,11.4-12.4,22.9-18.5,34.3c-6.3,11.7,8.3,22.5,18.1,13.9c9.9-8.7,18.5-18.4,26.3-29
			c-6.6-3.9-13.2-7.7-19.9-11.6c-13.9,19.7-28.3,39-43.3,57.9c-7.1,8.9-14.2,18-21.9,26.4c-6.7,7.3-14.7,16.3-24.8,18.5
			c4.3,5.6,8.7,11.3,13,16.9c12.6-20.6,27.9-39.1,45.7-55.5c-6.4-3.7-12.8-7.5-19.2-11.2c-4.6,15.4-11.3,29.7-19.8,43.2
			c6.6,3.9,13.2,7.7,19.9,11.6c12.8-25.9,37.5-42.4,59.3-60.2c12.3-10.1,24.8-21,32.4-35.2c6.3-11.8,9.4-26.2,19.5-35.4
			c-6.4-1.7-12.8-3.4-19.2-5.1c3.3,14.8,1.3,30-2.4,44.5c-3.6,14.2-8.1,28.8-14.3,42c-5.4,11.7-12.8,22-23.3,29.1
			c-10.5,7.1-22.3,12.1-33.7,17.8c-12.8,6.4-25.5,14-34.8,25.1c6.4,3.7,12.8,7.5,19.2,11.2c3.4-13.1,12-24.4,20.3-34.8
			c9.1-11.4,18.9-22.3,28.8-33c19.8-21.5,40-42.9,56.2-67.4c-7-3-14-5.9-21-8.9c-11.4,33.6-28.7,68.3-60.7,86.6
			c4.6,6,9.3,12,13.9,18.1c18.2-16.9,34-36.3,48.2-56.7c7-10.1,13.6-20.4,20-30.9c6.7-10.9,14.4-22.4,12-35.8
			c-1.1-6.1-4.5-12.4-10-15.7c-6.7-3.9-13.8-1.2-20.4,1.4c-11.3,4.5-21.5,10.5-31,18c-9.2,7.2-16.8,15.8-23.6,25.2
			c-6.2,8.6-11.8,18.2-20.2,24.9c-4.5,3.6-9.7,5.9-13.7,10.2c-5.3,5.7-7.9,13.4-10.2,20.6c-4.7,14.7-7.2,30.1-7.9,45.6
			c-0.3,7.1,7.7,13.6,14.6,11.1c-0.2,0-0.5,0.1-0.7,0.1c-1.9-0.5-3.9-1-5.8-1.6c-0.5-0.2-0.7-2.1-1.1-1.5c-0.2,0.3,0.7,2,0.8,2.3
			c1,2.7,2.1,4.8,4,6.9c3,3.5,7.2,5.9,11.6,7.1c9.4,2.6,19.1-1.4,27.4-5.7c14.7-7.6,27-19.3,38.2-31.2
			c11.5-12.2,23.3-24.2,34.2-36.9c11.2-13,21.1-27.2,26.2-43.7c5.6-18.3,4.9-38.9-5.4-55.4c-7.8-12.6-27.7-1-19.9,11.6
			c15,24.4-1.4,53-17.8,71.9c-9.7,11.2-20.2,21.8-30.3,32.6c-9.7,10.4-19.7,21-32,28.4c-3.1,1.9-6.4,3.8-9.8,5
			c-1.4,0.5-2.9,1-4.4,1.1c-0.5,0-0.9-0.3-1.1-0.1c-1.1,1-0.5-0.9-0.1-0.1c1.3,3.1,0.5-0.1-0.1-1.5c-1-2.7-2.3-5.5-4.4-7.6
			c-4-4-10.3-6-15.8-4c4.9,3.7,9.7,7.4,14.6,11.1c0.7-15.6,3.3-32.3,9.6-46.7c2.6-6,9.3-8.5,14.2-12.4c5.7-4.6,10.3-10.3,14.7-16.2
			c8.1-10.8,15.1-21.9,25.4-30.9c4.8-4.2,10.1-7.9,15.7-11c3.2-1.8,6.5-3.5,9.9-5c1-0.4,2.1-0.8,3.1-1.2c1-0.4,2-0.7,3-1.1
			c2.2-0.6,2-0.7-0.5-0.4c-1.7-1-3.4-2-5.1-3c5.4,4.4-5,17.1-7.9,21.8c-6.2,10.2-12.7,20.3-19.5,30.1c-13.2,19.1-28,36.9-45.1,52.7
			c-9.7,9,2.7,24.5,13.9,18.1c37.3-21.4,57.9-61,71.3-100.4c1.8-5.4-1.6-11.6-6.7-13.6c-5.5-2.2-11.1-0.2-14.4,4.7
			c-16,24.3-36.5,45.2-56.1,66.6c-10.1,11.1-20,22.4-29.2,34.3c-9.4,12.2-18.3,24.9-22.3,40c-2.7,10.4,11.5,20.4,19.2,11.2
			c16.8-20,44.5-25.6,65.6-40.5c26.6-18.9,37.6-50.7,45.8-81c5.2-19.4,7.5-39.6,3.1-59.4c-2-8.9-13.2-10.6-19.2-5.1
			c-11.6,10.5-15.5,25.3-22.4,38.7c-7,13.6-19.1,23.4-30.7,32.9c-23,18.7-48.2,36.5-61.7,63.9c-6.5,13.2,11.9,24.2,19.9,11.6
			c9.6-15.1,17-31.6,22.2-48.7c3.4-11.4-11.1-18.7-19.2-11.2c-19.2,17.6-35.8,37.9-49.3,60.1c-5.5,9,3.5,19,13,16.9
			c12.4-2.7,22.6-11.7,31.3-20.5c8.8-9,16.6-18.9,24.4-28.8c16.6-20.9,32.7-42.3,48.1-64.1c3.6-5.1,0.9-12.8-4.1-15.7
			c-5.8-3.4-12-0.9-15.7,4.1c-6.6,8.9-14.3,17-22.7,24.3c6,4.6,12,9.3,18.1,13.9c6.2-11.4,12.4-22.9,18.5-34.3
			c6.2-11.5-8.5-23-18.1-13.9c-5.1,4.9-10.8,8.7-17.1,12c5.2,5.2,10.5,10.5,15.7,15.7c4.7-9.8,10.4-18.9,17.7-27
			c4.1-4.6,4.6-11.7,0-16.3C758.8,143.2,750.9,142.7,746.7,147.4L746.7,147.4z"/>
	</g>
</g>
<g>
	<g>
		<path d="M834.1,334.8c-13.7,38.7-9.2,81.7,4.6,119.7c6.9,19.1,15.9,37.5,25.8,55.2c9.5,16.8,19.4,33.5,31.2,48.8
			c12.3,15.9,26.8,29.1,43.9,39.6c16.8,10.4,35,18.8,52.9,27.1c38.3,17.8,77.5,33.7,117.6,46.9c44.4,14.6,90.4,25.2,137.2,26.6
			c14.8,0.5,14.8-22.5,0-23c-39.1-1.2-77.5-9.3-114.9-20.7c-37.8-11.5-74.8-25.8-110.9-41.8c-18-8-35.9-16.3-53.3-25.5
			c-16.1-8.4-31.4-18-44-31.2c-12.4-13-22-28.3-31.1-43.6c-9.8-16.4-19-33.1-26.6-50.6c-16.6-38-24.4-81.5-10.2-121.5
			c2.1-5.9-2.4-12.6-8-14.1C841.8,325.1,836.1,329,834.1,334.8L834.1,334.8z"/>
	</g>
</g>
<g>
	<g>
		<path d="M971.1,267.9c9.5-37.1,21.2-74.1,36.5-109.2c1.1-2.5,2.4-5.9,4.2-7.7c1.5-1.5,2.6-1.6,4.7-0.7c5.3,2.4,7.8,9.8,9.5,15
			c5.6,17.1,6.2,35,5.6,52.9c-0.7,21-3,42-2.2,63.1c0.6,14.8,23.6,14.8,23,0c-1.6-41.8,9.7-85.9-5.8-126.2
			c-3.7-9.8-9.1-19.4-18.6-24.6c-9.8-5.3-21.7-4.8-30.4,2.4c-7.9,6.5-11.2,17.1-14.9,26.3c-4.2,10.3-8.2,20.8-12,31.3
			c-8.4,23.4-15.6,47.3-21.8,71.4C945.3,276.1,967.5,282.2,971.1,267.9L971.1,267.9z"/>
	</g>
</g>
<g>
	<g>
		<path d="M931.4,72.1c4.1,3.8,9.1,8.1,10.2,13.9c1.1,5.9-0.6,11.9-2.2,17.5c-1.9,6.7-5.5,14.9-3.6,21.9
			c2.4,8.9,12.4,10.1,19.9,11.8c14.4,3.4,20.5-18.7,6.1-22.2c-1.8-0.4-3.6-0.9-5.5-1.3c-0.6-0.1-1.2-0.3-1.8-0.4
			c-2.6-0.8-2.5-0.5,0.5,0.9c1,1.7,2,3.4,3,5.1c-0.1-0.3-0.1-0.7-0.2-1c0,2,0,4.1,0,6.1c1.7-12.3,7.7-23.6,7-36.3
			c-0.7-13.4-7.7-23.3-17.2-32.2C936.9,45.7,920.6,62,931.4,72.1L931.4,72.1z"/>
	</g>
</g>
<g>
	<g>
		<path d="M896.2,85.2c-32.9-21.8-67.8-40.5-104.1-56.1c-5.7-2.4-12.3-1.7-15.7,4.1c-2.8,4.8-1.6,13.3,4.1,15.7
			c36.3,15.5,71.1,34.3,104.1,56.1c5.2,3.4,12.7,1,15.7-4.1C903.6,95.3,901.4,88.6,896.2,85.2L896.2,85.2z"/>
	</g>
</g>
<g>
	<g>
		<path d="M886.6,76.1c-14.1-26.3-33.3-49.9-56.3-69c-4.8-4-11.6-4.7-16.3,0c-4.1,4.1-4.8,12.3,0,16.3
			c21.7,17.9,39.4,39.5,52.7,64.3C873.7,100.8,893.6,89.2,886.6,76.1L886.6,76.1z"/>
	</g>
</g>
<g>
	<g>
		<path d="M857,74c28.9-9.5,57-21.4,86.4-29.6c29.7-8.4,60.2-11.7,91.1-9.8c6.2,0.4,11.5-5.6,11.5-11.5c0-6.5-5.3-11.1-11.5-11.5
			c-32.1-2-64.4,1.5-95.4,10.1c-30,8.3-58.7,20.4-88.2,30.1c-5.9,1.9-9.7,8-8,14.1C844.4,71.7,851.1,75.9,857,74L857,74z"/>
	</g>
</g>
<g>
	<g>
		<path d="M980.1,40.3c25.7,55.3,60.8,110.5,119.2,135.2c15.9,6.7,32.6,10.6,49.8,11.1c14.8,0.5,14.8-22.5,0-23
			c-56.1-1.9-99-45-126.1-90.5c-8.6-14.4-16.1-29.3-23.1-44.4c-2.6-5.6-10.7-7.1-15.7-4.1C978.5,28,977.5,34.7,980.1,40.3
			L980.1,40.3z"/>
	</g>
</g>
<g>
	<g>
		<path d="M1091.4,84.2c44-8.9,88.5-16.1,133.1-20.6c21.9-2.2,44.1-3.5,66.1-2.1c17.6,1.1,35.2,4.2,48.1,16.9
			c13.5,13.2,21.1,31.4,28.5,48.5c2.5,5.7,10.8,7,15.7,4.1c5.9-3.5,6.6-10,4.1-15.7c-7.4-17.2-15.3-34.1-27.6-48.4
			c-13.7-15.9-32.3-24-52.8-26.8c-46.9-6.4-95.3,1.2-141.7,8c-26.7,3.9-53.2,8.5-79.6,13.9c-6.1,1.2-9.6,8.5-8,14.1
			C1079,82.5,1085.3,85.4,1091.4,84.2L1091.4,84.2z"/>
	</g>
</g>
<g>
	<g>
		<path d="M1296,119.2c-19.8,19.8-42,44.8-44,74.2c-1.3,19.6,10.1,36.5,24.8,48.3c15.4,12.4,33,21.3,49.7,31.7
			c3.9,2.4,7.8,5,11.5,7.7c1.2,0.9,3.1,2.5,0.6,0.4c0.8,0.7,1.7,1.4,2.6,2.1c1.6,1.3,3.1,2.7,4.6,4.1c1.5,1.4,2.9,2.9,4.3,4.5
			c0.3,0.4,0.6,0.7,0.9,1.1c1.5,1.7-0.6-0.9-0.7-0.9c0.2-0.1,1.6,2.2,1.7,2.4c1,1.6,1.9,3.2,2.8,4.9c1.5,2.8-0.7-2.4,0.1,0.3
			c0.3,0.9,0.6,1.8,0.9,2.7c0.2,0.9,0.4,1.7,0.6,2.6c0.1,0.4,0.1,0.9,0.2,1.3c0.4,1.5-0.2-3.2-0.2-1c0,2,0.2,3.9,0.1,5.9
			c0,0.6-0.2,1.2-0.2,1.7c0.1,0.6,0.6-3.1,0.1-1.1c-0.2,1.1-0.4,2.2-0.7,3.3c-0.6,2.3-1.3,4.5-2.1,6.8c-1.1,3,0.9-1.7-0.5,1.2
			c-0.7,1.4-1.3,2.8-2.1,4.1c-1.4,2.7-3,5.3-4.7,7.8c-0.9,1.3-1.8,2.6-2.7,3.9c-0.5,0.7-1,1.3-1.5,2c-0.3,0.3-0.5,0.7-0.8,1
			c-1,1.3,1.2-1.6,0.2-0.3c-2.5,3.1-5.1,6.3-7.8,9.3c-2.9,3.3-6,6.4-9,9.5c-10.5,10.5,5.8,26.8,16.3,16.3
			c17.8-17.9,39-41.7,38.5-68.7c-0.4-20.4-14.1-35.4-29.7-46.9c-15.2-11.2-32.4-19.5-48.2-29.9c-1.9-1.3-3.8-2.5-5.6-3.9
			c-0.9-0.6-1.7-1.3-2.6-1.9c-1.5-1.1-0.1-0.2,0.6,0.5c-0.5-0.5-1.1-0.9-1.6-1.3c-3.3-2.6-6.4-5.5-9.2-8.6c-0.7-0.7-1.3-1.5-1.9-2.2
			c-2-2.4,1.3,1.9-0.5-0.7c-1.1-1.6-2.2-3.2-3.1-5c-0.4-0.8-0.8-1.7-1.2-2.5c-0.9-1.7,0.6,1.7,0.4,1.1c-0.1-0.5-0.4-1-0.6-1.5
			c-0.6-1.9-1.1-3.9-1.5-5.9c-0.5-2.3,0.2,3,0-0.3c-0.1-1.1-0.1-2.1-0.1-3.2c0-1,0-2,0.1-3c0-0.5,0.1-1,0.1-1.6
			c0.1-2.3-0.5,2.4-0.1,0.7c0.6-2.4,0.9-4.8,1.7-7.2c0.4-1.2,0.7-2.3,1.2-3.5c0.2-0.6,0.5-1.2,0.7-1.8c0.6-1.7-1.1,2.3,0,0
			c2.8-5.8,5.9-11.4,9.6-16.7c1-1.4,2-2.9,3.1-4.3c0.5-0.7,1.6-2.2,0.4-0.6c0.7-0.9,1.4-1.7,2.1-2.6c2.8-3.5,5.7-6.8,8.7-10.1
			c3.2-3.5,6.5-7,9.9-10.3C1322.7,125,1306.5,108.7,1296,119.2L1296,119.2z"/>
	</g>
</g>
<g>
	<g>
		<path d="M1271.2,315.1c-7.7,67.5-9.9,135.5-6.4,203.3c0.3,6.2,5.1,11.5,11.5,11.5c6,0,11.8-5.3,11.5-11.5
			c-3.5-67.8-1.3-135.8,6.4-203.3c0.7-6.2-5.8-11.5-11.5-11.5C1275.9,303.6,1272,308.9,1271.2,315.1L1271.2,315.1z"/>
	</g>
</g>
<g>
	<g>
		<path d="M993.4,555.9c21,12.5,47.8,12,71.4,10.1c26-2.1,51.7-7.4,77.1-12.9c6.1-1.3,9.6-8.4,8-14.1c-1.7-6.3-8.1-9.3-14.1-8
			c-22.8,4.9-45.8,9.9-69.1,11.9c-19.7,1.7-43.9,3.7-61.7-6.8C992.2,528.5,980.7,548.4,993.4,555.9L993.4,555.9z"/>
	</g>
</g>
<g>
	<g>
		<path d="M1099.2,503.3c17.4,0.6,34.7,1.5,52,3c5.3,0.4,13.6-0.3,17.8,3.6c4.8,4.5,4.8,12.8,5.2,18.9c0.4,6.2,5,11.5,11.5,11.5
			c5.9,0,11.9-5.3,11.5-11.5c-0.7-10.2-1.6-21.2-7.7-29.9c-6.6-9.5-15.9-13.3-27.2-14.6c-20.9-2.4-42.1-3.2-63.1-3.9
			C1084.4,479.8,1084.4,502.8,1099.2,503.3L1099.2,503.3z"/>
	</g>
</g>
<g>
	<g>
		<path d="M1188.3,579.3c14.8,0,14.8-23,0-23C1173.5,556.3,1173.5,579.3,1188.3,579.3L1188.3,579.3z"/>
	</g>
</g>
<g>
	<g>
		<path d="M1247.9,587.7c14.8,0,14.8-23,0-23C1233.1,564.7,1233.1,587.7,1247.9,587.7L1247.9,587.7z"/>
	</g>
</g>
<g>
	<g>
		<path d="M1233.2,531.2c14.8,0,14.8-23,0-23C1218.4,508.2,1218.3,531.2,1233.2,531.2L1233.2,531.2z"/>
	</g>
</g>
<g>
	<g>
		<path d="M697.9,546.6c14.8,0,14.8-23,0-23C683.1,523.6,683.1,546.6,697.9,546.6L697.9,546.6z"/>
	</g>
</g>
<g>
	<g>
		<path d="M787.6,570.3c14.8,0,14.8-23,0-23C772.8,547.3,772.8,570.3,787.6,570.3L787.6,570.3z"/>
	</g>
</g>
<g>
	<g>
		<path d="M720.3,440.2c14.8,0,14.8-23,0-23C705.5,417.2,705.5,440.2,720.3,440.2L720.3,440.2z"/>
	</g>
</g>
<g>
	<g>
		<path d="M786.4,460.1c14.8,0,14.8-23,0-23C771.6,437.1,771.5,460.1,786.4,460.1L786.4,460.1z"/>
	</g>
</g>
<g>
	<g>
		<path d="M805.6,411.4c14.8,0,14.8-23,0-23C790.8,388.4,790.8,411.4,805.6,411.4L805.6,411.4z"/>
	</g>
</g>
<g>
	<g>
		<path d="M316.5,459.4c14.8,0,14.8-23,0-23C301.7,436.4,301.7,459.4,316.5,459.4L316.5,459.4z"/>
	</g>
</g>
<g>
	<g>
		<path d="M342.1,428.7c14.8,0,14.8-23,0-23C327.3,405.7,327.3,428.7,342.1,428.7L342.1,428.7z"/>
	</g>
</g>
<g>
	<g>
		<path d="M472.3,428c14.8,0,14.8-23,0-23C457.5,405,457.4,428,472.3,428L472.3,428z"/>
	</g>
</g>
<g>
	<g>
		<path d="M426.7,360.7c14.8,0,14.8-23,0-23C411.9,337.7,411.9,360.7,426.7,360.7L426.7,360.7z"/>
	</g>
</g>
<g>
	<g>
		<path d="M413.9,474.2c14.8,0,14.8-23,0-23C399.1,451.2,399.1,474.2,413.9,474.2L413.9,474.2z"/>
	</g>
</g>
<g>
	<g>
		<path d="M427.4,430c14.8,0,14.8-23,0-23C412.6,407,412.6,430,427.4,430L427.4,430z"/>
	</g>
</g>
<g>
	<g>
		<path d="M873.5,306.9c14.8,0,14.8-23,0-23C858.7,283.9,858.7,306.9,873.5,306.9L873.5,306.9z"/>
	</g>
</g>
<g>
	<g>
		<path d="M877.4,253.7c14.8,0,14.8-23,0-23C862.6,230.7,862.6,253.7,877.4,253.7L877.4,253.7z"/>
	</g>
</g>
<g>
	<g>
		<path d="M989.6,336.4c14.8,0,14.8-23,0-23C974.8,313.4,974.7,336.4,989.6,336.4L989.6,336.4z"/>
	</g>
</g>
<g>
	<g>
		<path d="M965.4,335.3c-0.2-0.6-0.4-1.3-0.7-1.9c-0.4-1.5-1-2.8-2.1-3.9c-0.8-1.3-1.9-2.2-3.2-3c-1.3-0.8-2.7-1.3-4.3-1.4
			c-1.5-0.3-3.1-0.3-4.6,0.2c-0.9,0.4-1.8,0.8-2.7,1.2c-1.7,1-3.1,2.4-4.1,4.1c-0.4,0.9-0.8,1.8-1.2,2.7c-0.5,2-0.5,4.1,0,6.1
			c0.2,0.6,0.4,1.3,0.7,1.9c0.4,1.5,1,2.8,2.1,3.9c0.8,1.3,1.9,2.2,3.2,3c1.3,0.8,2.7,1.3,4.3,1.4c1.5,0.3,3.1,0.3,4.6-0.2
			c0.9-0.4,1.8-0.8,2.7-1.2c1.7-1,3.1-2.4,4.1-4.1c0.4-0.9,0.8-1.8,1.2-2.7C966,339.3,966,337.3,965.4,335.3L965.4,335.3z"/>
	</g>
</g>
<g>
	<g>
		<path d="M951.1,303c14.8,0,14.8-23,0-23C936.3,280,936.3,303,951.1,303L951.1,303z"/>
	</g>
</g>
<g>
	<g>
		<path d="M136.9,187c-10.9,10.6-15.5,26-14.8,41c0.9,16.5,7.4,31.4,15.1,45.8c7.9,14.8,15.5,28.9,18.9,45.5
			c3.3,15.9,3.1,32.4,1.3,48.4c-7.5,67.3-47.7,127-48.3,195.7c-0.3,34.2,9.2,68.8,32.7,94.3c10.1,10.9,26.3-5.4,16.3-16.3
			c-41-44.4-25.5-111.5-8.4-162.5c20.8-61.9,48-129.2,19.3-193.4c-7-15.7-17.8-30.1-22.3-46.9c-3.3-12.3-3-26.4,6.2-35.3
			C163.8,192.9,147.6,176.6,136.9,187L136.9,187z"/>
	</g>
</g>
<g>
	<g>
		<path d="M215.1-604.7c8.1-4.3,16.1-8.5,24.4-12.4c2.2-1,4.5-2,6.7-3c-0.3,0.1-2.5,1-0.5,0.2c1.1-0.5,2.3-0.9,3.4-1.4
			c4.2-1.7,8.5-3.2,12.8-4.5c4.3-1.3,8.6-2.4,13-3.2c1.2-0.2,6.5-1,2.7-0.5c2.6-0.3,5.2-0.5,7.9-0.6c4.1-0.1,8.2,0.1,12.3,0.4
			c3.1,0.2-2.9-0.7,0.1,0.1c0.7,0.2,1.5,0.3,2.2,0.4c1.9,0.4,3.9,0.9,5.8,1.4c2.9,0.8,5.7,2,8.6,2.9c2.5,0.8-3.3-1.7-1.1-0.5
			c0.5,0.3,1.2,0.5,1.7,0.8c1.7,0.8,3.4,1.7,5.1,2.6c2.8,1.6,5.5,3.2,8.2,5c1.3,0.8,2.5,1.7,3.7,2.6c0.4,0.3,1.4,0.8,1.6,1.2
			c-1.3-2.4-2.2-1.8-0.3-0.2c10.4,8.6,19.8,18.2,28.9,28.1c19.6,21.4,38.6,43.9,63.7,59.2C456-507.6,492-501.4,527-500.5
			c35.7,0.9,71.1-4.2,106.7-5.5c9.2-0.3,18.4-0.4,27.6,0c4.6,0.2,9.1,0.5,13.7,0.9c2.1,0.2,4.2,0.5,6.3,0.7c2.3,0.2-0.3-0.1-0.7-0.1
			c1.8,0.2,3.6,0.5,5.4,0.8c9,1.5,17.9,3.6,26.5,6.5c3.9,1.3,7.7,2.7,11.4,4.3c-3.4-1.4,1.4,0.7,2.5,1.1c2.4,1.1,4.7,2.2,7,3.4
			c31.2,15.6,59.3,36.4,92.1,48.9c27.9,10.7,58.5,15.4,88.3,14.8c61-1.2,121.6-24.3,166.4-66c5.2-4.9,10.2-10,14.9-15.4
			c6.7-7.7,8.1-20.1,0-27.6c-7.4-6.8-20.4-8.2-27.6,0c-4.7,5.4-9.7,10.5-14.9,15.4c-2.6,2.4-5.3,4.8-8,7.1c-1.3,1.1-2.6,2.1-3.9,3.2
			c-0.3,0.2-2.2,1.8-2.2,1.8c-0.1-0.1,3.2-2.4,0.5-0.5c-11.5,8.4-23.6,15.9-36.5,22.1c-1.7,0.8-3.4,1.6-5.2,2.4
			c-0.7,0.3-5.5,2.5-2.9,1.3c2.4-1-2.1,0.8-3,1.2c-1.8,0.7-3.6,1.4-5.3,2c-6.7,2.5-13.5,4.6-20.4,6.5c-6.9,1.9-13.9,3.4-20.9,4.6
			c-1.9,0.3-3.8,0.6-5.6,0.9c-0.7,0.1-1.4,0.2-2.1,0.3c-2.8,0.4,3.7-0.4,0.9-0.1c-3.6,0.4-7.1,0.8-10.7,1.1
			c-14.5,1.1-29,0.9-43.5-0.7c-0.7-0.1-1.4-0.2-2.1-0.2c-3.6-0.4,0.4,0.1,0.9,0.1c-1.6-0.1-3.3-0.5-4.9-0.7
			c-3.7-0.6-7.5-1.3-11.2-2.1c-7-1.5-13.8-3.4-20.6-5.6c-3.2-1-6.3-2.1-9.4-3.3c-1.6-0.6-3.1-1.2-4.7-1.8c-3.3-1.3,0.2,0.1,0.7,0.3
			c-1.1-0.3-2.2-1-3.3-1.4c-7.8-3.5-15.3-7.5-22.7-11.7c-15.1-8.5-29.8-17.9-45.1-26.2c-16.4-8.8-33.7-16.4-51.8-20.8
			c-18.8-4.6-38.3-6.4-57.6-6.6c-36-0.4-71.7,5-107.6,5.8c-8.7,0.2-17.3,0.1-26-0.3c-3.9-0.2-7.8-0.5-11.6-0.9
			c-1.9-0.2-3.8-0.4-5.8-0.6c-0.6-0.1-4.1-0.6-1.5-0.2c2.8,0.4-2.3-0.4-2.3-0.4c-8.1-1.3-16.1-3.1-23.9-5.4
			c-3.6-1.1-7.2-2.3-10.8-3.7c-1-0.4-2-0.8-3-1.2c0.2,0.1,2.9,1.3,0.9,0.4c-2.2-1.1-4.4-2-6.6-3.1c-3.4-1.7-6.7-3.6-10-5.6
			c-3-1.9-6.2-5.1-9.3-6.5c0,0,3,2.4,1.3,1c-0.7-0.6-1.4-1.1-2.1-1.7c-1.2-1-2.4-2-3.6-3.1c-2.7-2.4-5.4-4.8-8-7.3
			c-10-9.6-19.1-19.9-28.4-30.1c-19.5-21.5-40.1-42.2-67.3-53.5c-35.6-14.8-73.4-4.5-106.8,11.1c-8.3,3.9-16.3,8.1-24.4,12.4
			c-9,4.8-12.5,18.1-7,26.7C194.3-602.5,205.4-599.6,215.1-604.7L215.1-604.7z"/>
	</g>
</g>
<g>
	<g>
		<path d="M363.8-727c2.6,0.5,5.1,1.1,7.6,1.8c1.1,0.3,6.9,1.6,7.3,2.6c-0.8-0.3-1.5-0.6-2.3-1c0.8,0.3,1.5,0.7,2.3,1.1
			c1.1,0.6,2.3,1.1,3.4,1.7c2.6,1.4,5.2,3,7.7,4.6c2.2,1.4,4.3,3,6.4,4.5c3.7,2.7-3.3-2.8,0.2,0.1c1,0.8,2.1,1.7,3.1,2.5
			c4.5,3.7,8.8,7.6,13,11.5c17.1,15.8,33.9,33.2,55,43.8c29.4,14.9,61.1,13.4,92.8,8.4c7.3-1.2,14.5-2.5,21.7-3.8
			c3.3-0.6,6.6-1.1,9.9-1.6c1.7-0.3,3.3-0.5,5-0.7c-4.9,0.7,2.3-0.2,3.2-0.3c6.7-0.7,13.4-1.1,20.1-1c3.3,0,6.6,0.2,9.9,0.5
			c0.8,0.1,6.2,0.9,1.3,0.1c2.1,0.4,4.3,0.7,6.4,1.2c2.6,0.6,5.2,1.3,7.8,2.1c1.5,0.5,3.1,1.1,4.6,1.7c-4.3-1.7,0.6,0.4,1.3,0.7
			c2.9,1.5,5.8,3.2,8.5,5.1c0.5,0.3,4.8,3.7,1.3,0.9c1.7,1.4,3.4,2.8,5.1,4.3c11.2,9.9,21.3,20.9,33.9,29.3
			c24.1,16.2,54.5,20.5,83,20c29.5-0.5,59-4.9,88.2-8c33-3.5,66-7,99-10.5c73.3-7.7,146.5-15.5,219.8-23.2
			c10.1-1.1,20-8.2,19.5-19.5c-0.4-9.6-8.6-20.6-19.5-19.5c-65.3,6.9-130.7,13.8-196,20.7c-32.3,3.4-64.7,6.8-97,10.3
			c-31.4,3.3-62.8,7.3-94.3,9.7c-13,1-26.1,1.4-39.2,0.4c-1.6-0.1-3.2-0.3-4.8-0.4c-0.9-0.1-6.1-0.3-1.2-0.1
			c-3.1-0.1-6.4-1.1-9.3-1.7c-3.1-0.7-6.1-1.5-9.1-2.4c-1.5-0.5-3-1-4.4-1.5c-1-0.4-2-0.7-2.9-1.1c2.2,1,2.4,1,0.3,0.1
			c-5.8-2.9-11.3-5.9-16.4-9.8c3.5,2.7-0.8-0.8-1.2-1.1c-1.3-1.1-2.5-2.2-3.7-3.3c-2.9-2.6-5.7-5.3-8.5-8
			c-10.3-9.9-21.2-19.7-34.3-25.7c-29.1-13.4-60.8-11-91.6-5.9c-7.1,1.2-14.1,2.5-21.2,3.7c-3,0.5-6.1,1-9.1,1.5
			c-0.4,0.1-6.4,0.9-2.1,0.3c-2.4,0.3-4.9,0.6-7.3,0.8c-7.2,0.7-14.5,1-21.8,0.7c-1.8-0.1-3.6-0.3-5.4-0.4c-5.8-0.3,3.7,0.8-1.9-0.2
			c-4.1-0.8-8.2-1.6-12.2-2.9c-1.6-0.5-3.1-1.1-4.7-1.6c-2-0.8-1.6-0.6,1,0.5c-0.8-0.3-1.6-0.7-2.4-1.1c-2.8-1.3-5.5-2.7-8.1-4.3
			c-2.6-1.6-5.2-3.2-7.7-5c-1.1-0.8-2.1-1.6-3.2-2.3c-1.7-1.3-1.4-1.1,0.8,0.6c-0.7-0.5-1.4-1.1-2.1-1.7
			c-9.5-7.6-18.2-16.1-27.1-24.4c-19.4-18.1-41-36.2-67.9-41.3c-10-1.9-21.5,2.8-24,13.6C348-741.4,353.1-729.1,363.8-727L363.8-727
			z"/>
	</g>
</g>
<g>
	<g>
		<path d="M650.8-859.2c-2.8,26.6-5.6,53.1-8.5,79.7c-0.7,6.6,4.2,13.6,9.7,16.8c6.2,3.6,13.5,3.3,19.7,0c9.5-5.1,19.1-10,28.9-14.7
			c4.7-2.3,9.5-4.5,14.3-6.6c2.3-1,4.5-2,6.8-3c1.1-0.5,2.3-1,3.4-1.5c5.6-2.4-3.5,1.4,2.2-0.9c19.7-8.1,39.7-15.4,60.1-21.6
			c5-1.5,10.1-3,15.1-4.4c1.2-0.3,14.1-4.5,14.5-3.7c0,0-5.1,0.6-1.2,0.3c1.3-0.1,3.5,0.6-1.4-0.3c1.7,0.3,2,1.4-1.4-0.6
			c-3.4-2.1-6.4-6.3-6.2-10.4c0.2-4.4,0.6-2.5,0.1-1.1c-0.3,0.9-0.6,1.9-0.9,2.8c-0.8,2.4-1.8,4.7-2.4,7.2
			c-6.1,27.1,21.9,47.5,47,39.5c11.4-3.6,20-11.1,29.2-18.4c-3.1,2.5,1.8-1.2,2.9-1.9c1-0.6,2-1.1,3-1.7c3.2-1.8,0.8-0.4,0-0.1
			c1.1-0.3,2.1-0.6,3.2-0.9c-3.7,1.1-0.9,0.3,0.5,0.1c2.9-0.2-3-0.4-0.4,0.1c1.4,0.4,0.9,0.2-1.4-0.6c0.4,0.2,0.8,0.5,1.2,0.7
			c1.2,2.6,1.1-0.7-0.6-0.5c-0.2,0,3.8,3.4,1.4,1.2c-1.9-1.7,0.2,0.2,0.6,0.9c0.5,0.8,1,1.7,1.5,2.5c0.5,0.9,0.9,1.8,1.3,2.6
			c1.4,2.4-1.1-3.2-0.2-0.7c0.9,2.5,1.8,5,2.7,7.5c3.7,10.8,8,21.7,16.5,29.7c15.9,14.9,39.6,17.5,59.9,11.4
			c10.5-3.1,20.5-8.4,29.9-13.9c4-2.3,8-4.7,12-6.9c2-1.1,4-2.2,6.1-3.2c1-0.5,2-1,3.1-1.5c4.9-2.3-3.6,1.2,1.6-0.6
			c2.7-0.9,5.4-1.8,8.1-2.5c1.1-0.3,2.2-0.5,3.3-0.7c4.1-0.9-3.1-0.2,1.4-0.2c2.5,0,4.9,0,7.4,0.1c2.8,0.1-3-1-0.4,0.1
			c0.5,0.2,5.5,1.5,3.1,0.7c-2.3-0.7,0.8,0.4,1.4,0.7c1.1,0.6,2.1,1.4,3.2,2c-3-1.5-1.4-1.2-0.4-0.3c1.1,1,2.2,2,3.3,3.1
			c0.7,0.7,1.3,1.5,2,2.2c3.4,3.7-2.2-3.2,0.7,0.9c1.5,2.1,3,4.2,4.4,6.4c5.9,9,11.4,18.4,19,26.1c9.8,9.9,21.3,15.5,35.1,16.9
			c10.2,1,19.9-9.7,19.5-19.5c-0.5-11.4-8.6-18.4-19.5-19.5c6.8,0.7-4.2-1.4-0.8-0.3c2.6,0.8-0.2-0.2-0.9-0.5
			c-0.8-0.5-1.6-1.1-2.5-1.5c-2.5-1.2,3.2,3.1-0.1,0c-0.7-0.7-1.5-1.3-2.2-2c-1.8-1.7-3.4-3.7-5.1-5.6c2.8,3.2-0.7-1-1.5-2.1
			c-1.1-1.7-2.2-3.4-3.3-5.1c-2.5-3.9-4.9-7.9-7.6-11.7c-6.5-9.2-14.1-18.2-24.4-23.5c-10.5-5.4-22.2-7.5-33.8-6.2
			c-23.1,2.6-41,15.3-61.1,25.7c-2.3,1.2-4.6,2.3-7,3.4c-2.7,1.3,2.7-0.8-0.1,0c-1.1,0.3-2.1,0.8-3.1,1.1c-2.1,0.7-4.1,1.2-6.3,1.7
			c-0.6,0.1-2.6,0.3-2.9,0.5c0.8-0.1,1.5-0.2,2.3-0.3c-1,0.1-1.9,0.2-2.9,0.2c-1.9,0.1-3.8,0-5.8-0.1c-2.6-0.1-0.3-0.9,0.9,0.2
			c-0.3-0.3-2.2-0.4-2.8-0.6c-0.9-0.2-1.8-0.5-2.7-0.8c-3.7-0.9,0.6,0.5,0.8,0.5c-0.8,0-2.3-1.2-3-1.6c-3.5-2.1,0.2-0.3,0,0.2
			c0,0-1.8-1.7-2-1.9c-3.2-2.6,0.9,2-0.3-0.2c-1-1.8-2.1-3.7-3.1-5.5c-1.5-2.7,1.5,4.3-0.2-0.5c-0.3-1-0.7-2-1.1-3
			c-0.9-2.5-1.7-5.1-2.6-7.6c-3.7-9.9-8.3-19.8-16.5-26.8c-10.6-9.2-25-12.6-38.5-8.2c-11.9,3.9-20.4,11.7-30.2,19.1
			c3.3-2.5-1.5,1-2.6,1.6c-1.1,0.7-2.3,1.2-3.4,1.9c-2.3,1.4,2.9-0.6,0.3-0.2c-0.3,0.1-0.5,0.2-0.8,0.2c-2,0.4-2.1,0.5-0.2,0.2
			c0.5-0.1,0.9-0.1,1.4-0.2c-0.8,0.1-1.7,0.1-2.5,0c0.1-0.5,4.9,1.4,1.4,0.1c-0.4-0.1-0.8-0.2-1.2-0.3c-1.6-0.6-1.6-0.6,0,0
			c0.4,0.2,0.8,0.3,1.2,0.5c-1.8-1.1-1.5-0.8,0.9,1c-1.1-1.1-1.4-2,0.7,1.3c-0.8-1.3-1-2.5,0.4,1.6c-0.5-1.6,0.2-2.5,0.2,1.6
			c0,3.9-0.5,2.2,0,0.8c0.3-1,0.6-1.9,1-2.9c0.8-2.3,1.8-4.6,2.3-7c3.4-15.5-4.8-30.8-20.7-34.6c-11.3-2.7-23,1.3-33.8,4.3
			c-47.9,13.5-94.4,32.5-138.2,56.1c9.8,5.6,19.6,11.2,29.3,16.8c2.8-26.6,5.6-53.1,8.5-79.7c1.1-10.2-9.7-19.9-19.5-19.5
			C658.8-878.2,651.9-870.1,650.8-859.2L650.8-859.2z"/>
	</g>
</g>
<g>
	<g>
		<path d="M520.8-1062.2c12.3-8.7,24.5-17.7,37.8-24.8c2.8-1.5,5.6-2.8,8.4-4.2c5.5-2.6-3.5,1.3,2.1-0.9c1.7-0.7,3.4-1.3,5.1-2
			c3.2-1.2,6.4-2.1,9.7-3c0.7-0.2,1.5-0.4,2.2-0.6c2.1-0.5,1.5-0.4-1.7,0c3.5,0,1.6-0.7-5.6-2c-2-2.6-4-5.1-6.1-7.7
			c0.3,1,0.6,2,0.8,3c-0.1-0.7-0.2-1.4-0.3-2.1c0.1,1,0.2,2.1,0.2,3.1c0.2,3.1,0.4,6.2,0.6,9.3c0.5,8,0.7,15.9,0.9,23.9
			c0.5,16.6-0.3,37.3,16.2,46.7c14.3,8.1,33.3-0.6,47.4-5.2c14.4-4.6,28.8-9.4,43.5-13.1c5.9-1.5,13.1-4.2,19.2-4.2
			c-4.4,0-0.8,0.1,0.4,0c1.3-0.1,2.6-0.2,4-0.2c1,0,6-0.5,1-0.2c1.3-0.1,6.9,2.5,2.7,0.3c0.5,0.2,0.9,0.5,1.4,0.7
			c1.8,1.2,1.6,0.9-0.6-0.7c-0.2,0,2,1.6,1.9,1.8c-0.5-0.6-1-1.3-1.5-1.9c0.5,0.7,0.9,1.4,1.4,2.2c2.4,3.4-1-4,0.1,0.1
			c0.7,2.6,1.4,5.1,1.9,7.7c0.9,4.4-0.2-3.5,0-0.6c0.1,1.5,0.3,3,0.5,4.5c0.8,8.6,0.9,17.6,3.4,25.9c3.6,12.3,14.4,19.8,27.1,20
			c9.7,0.2,19.4-4.4,28-8.3c3.6-1.6,7.2-3.2,10.7-5.1c1.4-0.8,2.7-1.6,4.1-2.4c0.9-0.6,1.8-1.1,2.7-1.6c2-1.1,1.8-1-0.7,0.4
			c-3.5,0-6.9,0-10.4,0c-0.9-0.4-1.8-0.7-2.7-1.1c-2.3-2.3-4.7-4.7-7-7c0.9,1.2,1.2,2.4-0.1-1.7c-1.5-4.8-0.7-2.4-0.8-0.9
			c-0.2,2.1,0.1,4.4,0.3,6.5c0.5,5.2,1.4,10.4,2.6,15.5c1.1,4.5,2.3,10,4.8,13.9c0.1,0.3,0.2,0.5,0.3,0.8c-0.4-4.2-0.8-8.5-1.2-12.7
			c0.1-0.3,2.1-4,1.5-3.6c-0.4,0.3-0.9,1.5-1.2,2c-0.5,0.7-0.9,1.3-1.4,2c-0.3,0.5-0.8,1-1.1,1.5c-0.2,0.3,2.9-3.6,1.6-2
			c-1.4,1.7-2.7,3.4-4,5.1c-3.9,5-7.7,9.6-9.9,15.7c-4.5,12.9,5.6,25.7,18.7,26.3c5.5,0.2,10.6-2.7,15.1-5.6
			c3.6-2.3,7.2-4.8,10.8-7.1c1.2-0.8,2.6-1.5,3.8-2.4c0,0,0.7-0.4,0.7-0.4c0.9,2.8-15.5,0.1-11.1,0.7c-2.4-0.3-4.8-0.7-7.2-1
			c1.6,0.7,3.1,1.3,4.7,2c2.7,0.7,5.3,0.7,8,0.3c5.7-0.8,10.8-3.6,16-6.1c2.1-1,4.1-2,6.2-3c0.5-0.2,1.1-0.5,1.6-0.7
			c2.3-1.2-2.6,1.1-2.7,1.1c4.9-1.5-3.4,0.8-8.2-0.6c-3.9-3-7.8-6-11.7-9c0,0,0,0.1,0,0.1c-0.7-5-1.3-10-2-15c0.1-0.3,7.4-9.8,3.7-7
			c-0.6,0.4-1.1,0.9-1.6,1.4c-1.6,1.4-3.3,2.7-4.9,4c-3.7,2.9-7.5,5.7-9.9,9.8c-3.6,6-3.7,14.1-0.1,20.1c2.8,4.7,6.9,6.9,11.7,9
			c-0.6-0.2-3.1-2-2.4-0.9c0.3,0.5,2.6,1.6,2.9,1.8c9,5.1,18.7,7.6,28.9,8.4c8,0.6,17.8,2.2,25.1-2c3.6-2.1,6.5-5.3,8.3-8.9
			c2.8-5.4,4-11.3,5.2-17.2c6.3-31.9,8.7-64.5,15-96.4c0.5-2.6,1.1-5.2,1.7-7.8c0.2-0.9,0.5-1.9,0.8-2.8c0.1-0.4,0.3-0.8,0.4-1.2
			c0.7-2.5-1.8,4.1-1.4,3.4c1.5-2.9-2.4,2.9-2.2,2.6c-8.7,8.6-23.8,5.4-29.1-3.4c0.8,1.4-2-6.1-1.2-2.8c0.2,1,0.5,1.9,0.7,2.8
			c0.5,2.4,0.9,4.9,1.3,7.3c0.5,3.2-0.5-3.9-0.3-2.6c0.1,0.8,0.2,1.6,0.3,2.5c0.2,1.8,0.4,3.5,0.6,5.3c0.9,8,1.5,16.1,2.2,24.1
			c1.4,17.3,2.6,34.7,4.3,52c0.8,7.8,1.6,15.6,3,23.3c1.1,6.1,3,12.5,7.5,17c6.9,6.8,15.9,6,24.7,5.4c8.5-0.6,17-1.4,25.4-2.4
			c8.4-1,16.9-2.2,25.3-3.1c3.9-0.4,7.9-0.7,11.8-0.9c2.1-0.1,4.2-0.1,6.3,0c0.9,0,1.7,0.1,2.6,0.1c2,0.1,1.8,0.4,0,0
			c2,0.5,3.9,1,5.9,1.5c2.2,0.6-0.5-0.2-0.9-0.4c0.7,0.4,1.4,0.8,2.1,1.2c0.7,0.4,1.4,0.9,2,1.3c-3.1-2.2-0.9-0.6-0.3,0.1
			c0.2,0.2,2.1,2.1,0.6,0.5c-1.5-1.5,0.8,1.1,1,1.5c5.9,8.7,11.4,16.3,20,22.5c14.8,10.5,33.6,13.8,51.4,14
			c8.6,0.1,17.2-0.5,25.8-0.9c10.2-0.4,20-8.7,19.5-19.5c-0.5-10.2-8.6-19.9-19.5-19.5c-8,0.3-16,0.9-24,0.9
			c-3.6,0-7.2-0.1-10.8-0.4c-0.9-0.1-1.8-0.2-2.7-0.3c0.3,0,3,0.6,0.7,0.1c-2.3-0.5-4.7-0.9-7-1.5c-1.7-0.5-3.4-1.2-5.1-1.6
			c-2.1-0.5,0.1,0.1,0.5,0.3c-0.7-0.3-1.5-0.7-2.2-1.1c-1.5-0.7-2.9-1.5-4.3-2.4c-0.7-0.4-1.4-0.9-2.1-1.4c1.5,0.9,1.5,1.4,0.1,0
			c-1.2-1.2-2.4-2.3-3.5-3.6c2.1,2.4-0.3-0.8-1-1.7c-2.6-4.1-5.3-8.1-8.5-11.7c-23.4-27.1-65-14.8-95.4-11.8
			c-3.8,0.4-7.5,0.7-11.3,1c-3.9,0.3-8.5-0.1-12.3,0.7c-0.3,0-0.6,0-0.9,0c3.2,0.9,6.3,1.7,9.5,2.6c-0.3-0.2,4.1,3.2,3.7,2.8
			c-1.1-1.1,3.7,5.3,2.6,3.3c-0.9-1.6,1.9,6.2,1.2,2.7c-0.4-1.8-0.9-3.6-1.2-5.4c-0.2-1.1-0.4-2.3-0.5-3.4c-0.8-5,0.6,5,0,0.3
			c-1.8-15-2.9-30.2-4.1-45.3c-1.2-15.3-2.3-30.6-4.1-45.9c-1.8-15.4-3.3-36.8-23.8-37.8c-11.2-0.5-18,8.6-21.2,18
			c-1.5,4.6-2.4,9.4-3.2,14.1c-2.8,15.1-4.8,30.4-7,45.6c-2.1,15.1-4.2,30.3-7,45.3c-0.9,4.6-2,9-3.2,13.5c-0.9,3.4,2.3-4.5,1.1-2.6
			c-0.1,0.2-0.2,0.4-0.3,0.6c2.8-4,2.4-3.3,6.7-5.8c1.4-0.8,2.8-1.6,4.1-2.4c5.3-0.4,6.6-0.6,4.1-0.7c-0.8-0.1-1.8-0.1-2.6-0.1
			c-1.7-0.1-3.5-0.2-5.2-0.3c-1.8-0.1-3.5-0.2-5.3-0.2c-0.3,0-3.2-0.2-0.9,0c2.2,0.2-1.3-0.3-1.7-0.4c-1.7-0.4-3.3-1-5-1.5
			c-2.1-0.5,0.3,0.1,0.6,0.3c-0.8-0.4-1.6-0.8-2.3-1.2c-3.6-1.9-6.7-3.7-10.6-5.2c3.9,3,7.8,6,11.7,9c0,0,0-0.1-0.1-0.1
			c0.7,5,1.3,10,2,15c-0.1,0.3-5.5,8.4-4.3,7.7c0.4-0.2,0.7-0.7,1.1-1c0.8-0.6,1.6-1.4,2.4-2c2.2-1.8,4.4-3.5,6.5-5.3
			c1.4-1.2,2.9-2.3,4.1-3.7c6.9-7.7,8.4-20.5,0.2-28.1c-9.7-8.9-20-5.3-30.2-0.5c-2.7,1.3-5.3,2.6-8,3.9c-1,0.5-2.1,0.9-3.1,1.4
			c0.1,0,5.2-1.9,2.6-1.2c-2.1,0.6-0.8-0.4,4-0.4c3.3,0.9,6.6,1.8,9.8,2.7c-7.3-3.3-13.9-3.5-21.1,0.3c-2.2,1.2-4.3,2.6-6.5,4
			c-2.6,1.7-5.2,3.5-7.8,5.1c-1.1,0.7-2.3,1.5-3.5,2.2c-0.4,0.3-0.9,0.5-1.4,0.8c-0.1,0.1-0.3,0.2-0.4,0.2c2.7-1.5,5.6-2.3,8.7-2.2
			c3.3,0.9,6.6,1.8,9.8,2.7c0,0-0.1,0-0.1,0c2.3,2.3,4.7,4.7,7,7c0-0.1-0.1-0.1-0.1-0.2c0.9,3.3,1.8,6.6,2.7,9.8
			c-0.1-1.4-0.7,4.6-0.6,4.2c0,0.1-2.7,4.7-1.3,3.3c0.5-0.6,0.9-1.5,1.4-2.1c0.6-0.8,1.3-1.6,1.8-2.5c-0.1,0.1-3.2,4.1-1.3,1.7
			c0.4-0.5,0.8-1.1,1.2-1.6c3.6-4.5,7.6-9,10.4-14.1c2.5-4.5,3.5-9,2.8-14.1c-0.4-3.3-1.9-5.9-3.1-9c1.5,3.5,0.3,0.7,0.2,0
			c-0.3-1.5-0.8-2.9-1.2-4.4c-0.5-2.2-1-4.3-1.4-6.5c-0.1-0.7-0.3-3.7-0.1-0.5c0-1-0.1-1.9-0.2-2.9c-0.2-6.8-0.3-13.4-4-19.4
			c-5-8.2-14.9-12.8-24.4-10.3c-4.9,1.3-9,3.8-13.3,6.3c-3.6,2.1-7.4,3.8-11.1,5.5c-1.1,0.5-2.2,1-3.3,1.5c0.4-0.2,2.6-0.9,0.5-0.2
			c-2.6,0.8-5.1,1.8-7.7,2.5c-0.7,0.2-3.1,0.1-0.6,0.2c3.8,0.1,3.4,0.2,7,3.1c-1-0.8,5.7,3.8,4.6,5.3c0.1-0.2-0.6-2.6-0.7-3
			c-0.2-1.2-0.4-2.3-0.6-3.5c0.1,0.4,0.2,3,0.2,0.7c-0.1-2.7-0.5-5.4-0.7-8c-0.7-7.9-1.2-16.2-3.9-23.8c-3.4-9.8-9-18.4-18-24
			c-8.6-5.3-19.2-7.4-29.2-6.8c-19.3,1.2-38.6,7.5-56.9,13.2c-9.1,2.9-18.2,5.9-27.4,8.7c-4.5,1.4-9.3,2.4-13.8,3.9
			c-1.6,0.5-1.3-0.4,0.1,0.1c0.4,0,0.9-0.1,1.3-0.2c-1.7,0-1.7,0.1,0.1,0.3c1.3,0.5,2.6,0.6,3.9,1.3c3.4,2,7.3,11.1,5.2,5
			c-0.9-2.7,0.3,3.5,0,0.4c-0.1-0.9-0.2-1.7-0.3-2.6c-0.2-2.3-0.4-4.6-0.5-6.9c-0.2-5-0.3-10-0.5-15c-0.3-9.4-0.7-18.8-1.4-28.1
			c-0.5-6.6-1.4-12.9-4.5-18.8c-4.1-7.8-12.5-12.4-21.1-12.8c-9-0.4-18.8,3.3-27,6.6c-21.5,8.5-39.7,20.9-58.5,34.2
			c-8.3,5.9-13.1,17.3-7,26.7C499.5-1060.9,511.9-1055.8,520.8-1062.2L520.8-1062.2z"/>
	</g>
</g>
<g>
	<g>
		<path d="M712.2-1200.2c8.3,5.5,17.8,7.4,27.4,8.7c11.3,1.6,22.7,2.4,34,3.6c0.5,0.1,4.4,0.5,2.1,0.2c-2.1-0.3,0.9,0.2,1.1,0.2
			c2.5,0.4,4.9,0.8,7.3,1.4c3,0.7,5.9,1.5,8.8,2.4c0.7,0.2,5.5,2.1,2.3,0.7c-3.2-1.4,1.6,0.9,2.2,1.3c3.6,1.9-2.2-2.4-0.3-0.2
			c-1.4-1.6-2.6-3.5-3.1-5.6c-0.7-2.3-0.5-4.6,0.5-6.8c1.3-3.6,1.4-4.3,0.2-2.2c0.1-0.2,2.5-2.7,0.9-1.4c-0.7,0.6-1.3,1.3-1.9,2
			c-1.2,1.2-2.4,2.3-3.5,3.5c-5.8,6.6-9.2,15.1-6.9,23.9c3.1,12.3,15.1,18.1,26.2,21.5c19.9,6.1,40.5,9.4,60.7,14.1
			c11.3,2.6,22.7,5.3,33.9,8.3c5.5,1.4,11,3,16.5,4.6c2.6,0.8,5.2,1.7,7.9,2.3c1.4,0.3,2.5,1.6-0.6-0.3c-0.5-0.5-1.1-0.9-1.6-1.4
			c1.5,1.5,1.4,1.3-0.1-0.7c-0.9-3.3-1.8-6.6-2.7-9.8c0-3.4,1.1-6.4,3.3-8.8c-0.6,0.6-1.3,1.2-1.9,1.8c-1.2,1.1-2.3,2-3.3,3.2
			c-8.8,10.2-6.7,22.9,3.9,30.6c6.9,5,15.2,6.7,23.5,8c8.5,1.4,17,3.1,25.5,4.5c17.2,2.9,34.5,5.4,51.7,8.4
			c17.4,3,34.6,6.5,51.8,10.4c9,2,17.9,4.2,26.8,6.4c4,1,8.1,1.8,12.1,3c1.7,0.5,3.3,1.3,4.9,1.7c6.1,0.9,6.9,1,2.5,0.2
			c-6.7-2.9-10.3-7.4-10.9-13.5c3.2-5.6,6.4-11.2,9.7-16.8c-1.1,0.5-2.1,1-3.2,1.5c-5,2.4,2.1-0.7-1,0.4c-2.5,0.9-4.9,1.9-7.4,2.7
			c-2.2,0.8-4.5,1.5-6.7,2.3c-1.1,0.4-2.2,0.7-3.3,1.1c-0.8,0.3-1.6,0.6-2.4,0.9c-1.6,0.5-1,0.6,1.6,0.3c-0.3-0.4-5.5,0.7-6.2,1
			c-1.8,0.6-3.8,1.5-5.4,2.4c-4.7,2.7-7.7,7.3-9.5,12.3c-3.6,10.2,1.4,21.8,11.2,26.1c5.8,2.5,11.5,5.4,17.5,7.3
			c5.4,1.8,10.9,3.3,16.3,4.9c10.8,3.2,21.5,6.4,32.3,9.5c44,12.7,88.1,25.2,131.5,39.8c12.1,4.1,24.1,8.3,36,12.9
			c3,1.2,5.9,2.4,8.9,3.5c1.2,0.5,2.3,0.9,3.5,1.3c3.3,1.2-0.7-0.5,1.2,0.4c3.2,1.6,6.3,3.4,9.6,4.8c0.9,0.4,6.7,3.4,1.1,0.4
			c-2.3-1.2-4.1-3.4-5-5.9c1.7-6.3,3.3-12.6,5-19c-2.6,2.4,1.9-0.5,0.2,0.1c-0.3,0.1-2.7,1.7-2.7,1.5c-0.1-0.3,4.2-1.4,1.1-0.6
			c-1.4,0.4-2.7,0.8-4.1,1.2c-9.8,2.7-16.9,14-13.6,24c3.3,10.1,13.4,16.5,24,13.6c8.8-2.4,16.2-6,22.8-12.2c4.8-4.5,7.1-12.6,5-19
			c-1.7-5.3-4.1-9.7-8.1-13.6c-3.5-3.5-6.2-4.3-10.6-6.3c-0.6-0.3-1.9-1.3-0.2-0.1c2.3,1.6-1.7-1.1-2.3-1.3
			c-9.3-4.6-19.3-8.1-29-11.7c-17.6-6.7-35.4-12.6-53.3-18.4c-36.9-11.9-74.3-22.4-111.5-33.2c-10.5-3-20.9-6.1-31.4-9.3
			c-4.8-1.4-9.6-3.1-14.5-4.3c-3.5-0.9-1.6-0.2-0.7,0.1c-1.5-0.5-2.9-1.2-4.3-1.9c-2.6-1.1-5.1-2.2-7.7-3.3
			c3.2,5.6,6.4,11.2,9.7,16.8c-0.2-2.3-0.3-1.5-0.4,2.3c-1.7,2.9-3.3,5.7-5,8.6c-11.4,3.7-14,5-7.7,3.9c1.5,0,2.9-0.3,4.2-1
			c1.4-0.4,2.7-1,4.1-1.4c3.1-1,6.1-2,9.2-3.1c7.1-2.5,14.2-5.3,21-8.6c6.1-3,9.5-10.3,9.7-16.8c0.1-6.9-2.3-13.5-7.3-18.3
			c-2.6-2.5-5.9-4.4-9.4-5.5c-0.7-0.3-1.4-0.4-2.2-0.5c-5.9-0.6-6.9-0.8-3-0.6c-0.5,0.3-5.9-1.9-6.6-2.1c-1.7-0.5-3.4-0.8-5.1-1.2
			c-5-1.1-10.1-2.4-15.1-3.6c-18.4-4.4-37-8.5-55.6-12c-18.4-3.4-37-6.1-55.5-9.2c-9.6-1.6-19.1-3.3-28.7-5
			c-3.5-0.6-7.1-1.1-10.6-1.8c-1.3-0.3-5.1-0.5-6-1.5c2.3,1.1,2.5,1.1,0.5,0.1c-0.9-0.5-1.7-1-2.5-1.7c1.3,10.2,2.6,20.4,3.9,30.6
			c3.3-3.8,7.2-6.5,9.9-10.9c5.8-9.3,3.8-19.9-3.1-27.9c-8.3-9.6-22.4-12.1-34-15.4c-22.4-6.3-45.3-11.4-68.1-16.2
			c-11.4-2.4-22.7-4.8-33.9-8.2c-0.5-0.2-3.5-0.9-3.6-1.1c-0.1-0.2,4.5,2.4,1.2,0.4c0.2,0.1-2.2-1.2-2.2-1.2
			c0.7,0.5,1.4,1.1,2.1,1.6c5.3,7.6,5.9,13.8,1.6,18.7c-0.5,1.9-0.6,0.6,0.5-0.3c0.8-0.7,1.6-1.5,2.4-2.3c2.4-2.4,4.8-5.1,6.6-8
			c8.2-13.6,3.1-28.2-9.2-37c-6-4.3-13.4-6.8-20.5-8.7c-12.7-3.5-26-4.4-39.1-5.6c-3.1-0.3-6.2-0.6-9.3-0.9
			c-5.9-0.6,2.1,0.4-1.2-0.1c-1.6-0.2-3.2-0.5-4.8-0.7c-2.6-0.4-5.2-0.9-7.8-1.6c-0.6-0.2-3.8-1.2-1.4-0.3c1.3,0.6,1.2,0.5-0.6-0.3
			c-1-0.5-1.9-1.1-2.8-1.7c-8.5-5.6-21.9-2-26.7,7C700-1217.1,703-1206.2,712.2-1200.2L712.2-1200.2z"/>
	</g>
</g>
<g>
	<g>
		<path d="M1122.2-358.2c6.5,7.5,14.2,15,23,19.6c10.7,5.6,22.2,8.5,34.2,9.5c21,1.8,43.1-5.5,62-14.2c37.7-17.5,57-56.6,72.2-93
			c7.5-18,13.5-36.5,17.5-55.6c4.2-20.1,7.9-40.2,13.3-60c1.2-4.4,2.6-8.8,4.2-13.1c1.3-3.6,0.5-1.2,0.2-0.4c0.5-1.1,1-2.2,1.6-3.3
			c1.2-2.5,2.4-4.9,3.7-7.3c4.6-8.6,9.8-16.9,15.4-25c5.5-8,11.4-15.6,17.1-23.5c1.4-1.9,2.7-3.8,4.1-5.6c0.3-0.4,2.5-3.3,1.1-1.5
			c-1.4,1.8,0.8-1,1.2-1.4c3.1-3.7,6.6-7,9.8-10.5c15.9-17.2,22.9-38.5,21.9-61.8c-0.4-11-2.3-21.9-4.4-32.7
			c-1.1-5.6-2.2-11.2-3.1-16.8c-0.1-0.5-0.6-4.4-0.3-2.1c0.3,2.3-0.2-1.6-0.2-2.2c-0.1-0.8-0.1-1.6-0.2-2.4c0-0.4,0-0.8,0-1.2
			c-0.1,3.2-1.3,6.1-3.5,8.6c7.4-7.1,7.6-20.6,0-27.6c-7.9-7.3-19.7-7.5-27.6,0c-9.7,9.3-8,21.6-6.3,33.6c1.3,9.6,3.5,19,5.1,28.6
			c0.3,2,0.8,4.1,1,6.2c-0.3-4,0,0.1,0.1,1.8c0.4,4.2,0.6,8.4,0.5,12.5c0,1.8-0.2,3.6-0.3,5.4c-0.2,3.7,0.1,0.1,0.2-0.6
			c-0.1,1-0.3,2.1-0.5,3c-0.3,1.8-0.8,3.5-1.2,5.2c-0.3,1-0.6,2-0.9,2.9c-0.4,1-2,4,0,0.4c-0.9,1.6-1.6,3.3-2.5,4.8
			c-0.5,0.9-1.2,1.7-1.7,2.7c-1.3,2.5,2.1-2.3,0.1,0c-3.2,3.6-6.5,7.1-9.8,10.6c-6.9,7.4-12.5,15.7-18.5,23.8
			c-11.3,15.2-22.5,30.6-31.2,47.4c-18.4,35.5-20.1,76.2-31.3,114c-2.7,9-5.8,18-9.3,26.7c-0.5,1.1-0.9,2.3-1.4,3.4
			c-0.1,0.1-1.2,2.9-0.4,1c0.9-2.1-0.6,1.4-0.8,1.9c-0.5,1.1-1,2.2-1.5,3.3c-2,4.4-4.1,8.8-6.3,13.2c-4,8.1-8.2,16.3-13.2,23.9
			c-1,1.6-2.2,3.1-3.3,4.7c-1.6,2.4,2-2.3,0.1-0.1c-0.5,0.6-1,1.3-1.5,1.9c-2.8,3.3-5.8,6.5-8.9,9.4c-1.8,1.7-3.8,3.2-5.6,4.9
			c-2.1,2,2.4-1.6,0,0c-1.2,0.8-2.3,1.6-3.5,2.4c-1.9,1.2-3.9,2.4-5.8,3.4c-1,0.5-2,1-3,1.5c0.1,0-4.6,2.1-2.3,1.1
			c2.2-1-1.1,0.4-1.6,0.6c-1.3,0.5-2.7,1-4,1.5c-2.1,0.8-4.3,1.5-6.5,2.1c-5.2,1.6-10.4,3-15.7,4c-0.7,0.1-3.8,0.4-0.5,0.1
			c-1.3,0.1-2.5,0.2-3.8,0.3c-2.8,0.1-5.7,0.1-8.5-0.1c-0.5,0-4.4-0.6-2.2-0.2c2.1,0.3-3.3-0.7-3.1-0.7c-2.3-0.5-4.5-1.2-6.8-1.9
			c-3.5-1.1-1-0.3-0.2,0c-1.3-0.6-2.6-1.3-3.9-2c-0.5-0.3-3.8-1.9-1.7-0.8c1.8,1-1.8-1.4-2-1.6c-3.8-3.3-7.3-6.9-10.6-10.7
			c-6.7-7.8-20.8-7.4-27.6,0C1114.6-377.5,1115.1-366.5,1122.2-358.2L1122.2-358.2z"/>
	</g>
</g>
<path d="M593.8-823.3c-2.9-7.8-6.5-14.1-12-20.4c-6.7-7.7-20.8-7.4-27.6,0c-2.9,3.1-4.6,6.7-5.2,10.4c-12,2-23.9,3.8-35.9,5.5
	c-0.8,0.1-1.7,0.2-2.5,0.4c0.5-2.6,0.7-5.3,0.3-8.1c-1.2-9-6.4-16.4-14.5-20.7c-0.9-0.5-1.9-1-2.8-1.5c0.7-0.4,1.3-0.7,2-1.1
	c2.3-1.2,4.7-2.3,7-3.3c0.1,0,0.1,0,0.1-0.1c0.2-0.1,0.5-0.2,0.8-0.3c1.6-0.6,3.2-1.2,4.9-1.8c9.2-3.2,15.3-11.4,14-21.4
	c-1.2-9.2-17.6-104.7-27.3-104.3c-22.8,0.8,20.8,103.2-2,104c0.2-2.7-58.2-19.5-58.9-22.2c-5.5-19.9-29.1-22.5-46.1-25.4
	c-34-5.7-68.5-7.6-103-4.8c-10.1,0.8-20,8.4-19.5,19.5c0.4,9.9,8.6,20.4,19.5,19.5c26.9-2.2,54-1.7,80.8,1.6
	c0.7,0.1,4.9,0.7,1.4,0.2c1.6,0.2,3.1,0.5,4.7,0.7c2.4,0.4,4.8,0.8,7.1,1.2c-6.7,5-11.6,13.2-8.8,21.9c2.6,8,10,14.6,18.8,14.3
	c18.6-0.7,37.2-1.3,55.7-2c-1,8,1.8,15.9,7.6,22.2c3.1,3.5,7,6.5,11,9.1c-0.5,0.4-1,0.8-1.4,1.2c-5.5,4.5-11.1,9-16.6,13.5
	c-6,4.8-6.8,14.8-4,21.3c2.7,6.5,10.2,12.8,17.8,12c40.5-4.3,80.9-10,121-17.1C589.9-801.1,597.2-814.1,593.8-823.3z"/>
</svg>
